<svg width="725" height="136" viewBox="0 0 725 136" fill="none" xmlns="http://www.w3.org/2000/svg">
<path d="M0 135.376H135.376V4.74021e-05H0V135.376ZM219.122 127.795C209.51 127.795 201.049 125.765 193.739 121.703C186.428 117.597 180.72 111.866 176.613 104.511C172.552 97.1101 170.521 88.446 170.521 78.5184C170.521 68.5908 172.62 59.9493 176.816 52.5938C181.058 45.1932 186.879 39.4623 194.28 35.401C201.681 31.2946 210.142 29.2414 219.663 29.2414C224.672 29.2414 229.252 29.7829 233.404 30.8659C237.555 31.9038 241.143 33.2124 244.166 34.7918L242.271 51.3077C238.841 49.7283 235.299 48.4422 231.644 47.4495C228.034 46.4116 223.995 45.8927 219.528 45.8927C212.894 45.8927 207.344 47.2916 202.876 50.0893C198.454 52.8871 195.115 56.7453 192.859 61.664C190.602 66.5827 189.474 72.2008 189.474 78.5184C189.474 84.836 190.58 90.4541 192.791 95.3728C195.002 100.291 198.296 104.15 202.673 106.947C207.096 109.745 212.578 111.144 219.122 111.144C223.679 111.144 227.763 110.648 231.373 109.655C234.983 108.662 238.616 107.354 242.271 105.729L244.166 122.245C240.601 123.915 236.675 125.246 232.388 126.239C228.147 127.276 223.724 127.795 219.122 127.795ZM285.539 127.254C278.183 127.254 271.911 125.652 266.721 122.448C261.532 119.244 257.561 114.98 254.808 109.655C252.101 104.33 250.747 98.509 250.747 92.1914C250.747 85.8287 252.101 79.9624 254.808 74.5925C257.561 69.2225 261.532 64.9356 266.721 61.7317C271.911 58.4827 278.183 56.8582 285.539 56.8582C292.894 56.8582 299.166 58.4827 304.356 61.7317C309.545 64.9356 313.494 69.2225 316.201 74.5925C318.954 79.9624 320.33 85.8287 320.33 92.1914C320.33 98.509 318.954 104.33 316.201 109.655C313.494 114.98 309.545 119.244 304.356 122.448C299.166 125.652 292.894 127.254 285.539 127.254ZM285.539 113.446C291.179 113.446 295.511 111.483 298.535 107.557C301.603 103.586 303.137 98.4639 303.137 92.1914C303.137 85.8287 301.603 80.6618 298.535 76.6908C295.511 72.6746 291.179 70.6666 285.539 70.6666C279.943 70.6666 275.611 72.6746 272.542 76.6908C269.474 80.6618 267.94 85.8287 267.94 92.1914C267.94 98.4639 269.474 103.586 272.542 107.557C275.611 111.483 279.943 113.446 285.539 113.446ZM332.075 125.9V31.1366H365.784C373.049 31.1366 379.186 32.2196 384.195 34.3857C389.204 36.5517 392.995 39.891 395.567 44.4035C398.184 48.9161 399.493 54.6921 399.493 61.7317C399.493 68.8615 398.207 74.7504 395.635 79.3983C393.062 84.0011 389.294 87.4307 384.331 89.6869C379.367 91.8981 373.32 93.0037 366.19 93.0037H349.403V125.9H332.075ZM349.403 78.5184H364.159C370.071 78.5184 374.493 77.1872 377.426 74.5248C380.405 71.8624 381.894 67.6883 381.894 62.0025C381.894 56.3166 380.382 52.1651 377.359 49.5478C374.38 46.9305 369.845 45.6219 363.753 45.6219H349.403V78.5184ZM423.049 127.254C419.439 127.254 416.145 126.464 413.167 124.885C410.189 123.26 407.819 120.936 406.06 117.913C404.3 114.89 403.42 111.234 403.42 106.947C403.42 103.112 404.3 99.8402 406.06 97.1327C407.865 94.38 410.211 92.1012 413.099 90.2961C416.032 88.446 419.191 87.002 422.575 85.9641C426.005 84.8811 429.367 84.0914 432.661 83.595C436 83.0986 438.933 82.8053 441.461 82.7151C441.28 78.8343 440.287 76.0139 438.482 74.254C436.677 72.4941 433.609 71.6142 429.277 71.6142C426.253 71.6142 423.297 72.0429 420.409 72.9003C417.567 73.7125 414.34 74.9986 410.73 76.7585L409.241 63.0855C413.302 61.0999 417.363 59.6108 421.425 58.618C425.531 57.6253 429.683 57.1289 433.879 57.1289C438.933 57.1289 443.288 58.0314 446.943 59.8364C450.598 61.6415 453.419 64.552 455.404 68.5682C457.39 72.5393 458.383 77.7964 458.383 84.3396V102.615C458.383 106 458.54 108.459 458.856 109.993C459.172 111.483 459.759 112.43 460.616 112.836C461.474 113.242 462.715 113.446 464.339 113.446H466.505L465.016 127.254H458.924C456.397 127.254 454.141 126.915 452.155 126.239C450.215 125.607 448.545 124.704 447.146 123.531C445.747 122.358 444.619 120.981 443.762 119.402C441.551 121.884 438.55 123.824 434.759 125.223C431.014 126.577 427.111 127.254 423.049 127.254ZM430.089 114.393C431.578 114.393 433.428 114.01 435.639 113.242C437.85 112.43 439.836 111.189 441.596 109.52V94.0867C438.437 94.2221 435.278 94.741 432.12 95.6435C428.961 96.546 426.321 97.8772 424.2 99.6371C422.079 101.397 421.019 103.608 421.019 106.271C421.019 109.023 421.741 111.076 423.185 112.43C424.629 113.739 426.93 114.393 430.089 114.393ZM496.861 127.254C492.619 127.254 489.167 126.397 486.505 124.682C483.842 122.922 481.88 120.688 480.616 117.981C479.353 115.273 478.721 112.453 478.721 109.52V72.0203H469.109L470.598 58.2119H478.721V43.3205L495.507 41.5606V58.2119H510.399V72.0203H495.507V102.615C495.507 106.045 495.71 108.527 496.117 110.061C496.523 111.55 497.448 112.498 498.892 112.904C500.336 113.265 502.637 113.446 505.796 113.446H510.399L508.91 127.254H496.861ZM521.33 125.9V58.2119H538.117V125.9H521.33ZM521.33 47.9233V31.1366H538.117V47.9233H521.33ZM589.05 127.254C583.906 127.254 579.461 126.419 575.716 124.749C571.97 123.08 568.473 120.801 565.224 117.913L570.233 114.393L569.421 125.9H553.717V24.3678H570.504V69.4482L566.443 66.876C569.421 63.8075 572.738 61.4158 576.393 59.7011C580.093 57.9863 584.312 57.1289 589.05 57.1289C595.684 57.1289 601.257 58.7309 605.769 61.9348C610.282 65.1387 613.689 69.403 615.99 74.7278C618.337 80.0527 619.51 85.8738 619.51 92.1914C619.51 98.509 618.337 104.33 615.99 109.655C613.689 114.98 610.282 119.244 605.769 122.448C601.257 125.652 595.684 127.254 589.05 127.254ZM586.614 113.446C589.953 113.446 592.796 112.543 595.142 110.738C597.489 108.933 599.271 106.451 600.49 103.292C601.708 100.088 602.317 96.3881 602.317 92.1914C602.317 87.9947 601.708 84.317 600.49 81.1582C599.271 77.9543 597.489 75.4499 595.142 73.6448C592.796 71.8398 589.953 70.9373 586.614 70.9373C582.688 70.9373 579.484 71.8398 577.002 73.6448C574.52 75.4499 572.67 77.9543 571.452 81.1582C570.278 84.317 569.692 87.9947 569.692 92.1914C569.692 96.3881 570.278 100.088 571.452 103.292C572.67 106.451 574.52 108.933 577.002 110.738C579.484 112.543 582.688 113.446 586.614 113.446ZM648.52 127.254C644.504 127.254 641.209 126.464 638.637 124.885C636.11 123.26 634.238 121.117 633.019 118.454C631.801 115.747 631.192 112.769 631.192 109.52V24.3678H647.978V102.615C647.978 106.225 648.181 108.798 648.587 110.332C649.039 111.821 649.851 112.724 651.024 113.039C652.198 113.31 653.89 113.446 656.101 113.446L654.612 127.254H648.52ZM698.719 127.254C690.551 127.254 683.737 125.629 678.277 122.38C672.862 119.086 668.801 114.754 666.093 109.384C663.386 103.969 662.032 98.0577 662.032 91.6499C662.032 85.4677 663.296 79.7593 665.823 74.5248C668.395 69.2902 672.14 65.0936 677.059 61.9348C681.978 58.7309 687.979 57.1289 695.064 57.1289C701.562 57.1289 706.977 58.4601 711.309 61.1225C715.641 63.7849 718.89 67.3498 721.056 71.8173C723.222 76.2396 724.305 81.1357 724.305 86.5056C724.305 87.9947 724.215 89.5064 724.035 91.0407C723.854 92.5298 723.583 94.0867 723.222 95.7112H679.496C680.127 99.9079 681.436 103.315 683.422 105.932C685.452 108.504 687.912 110.4 690.8 111.618C693.733 112.836 696.869 113.446 700.208 113.446C704.134 113.446 707.789 112.949 711.174 111.956C714.558 110.918 717.672 109.565 720.515 107.895L721.327 122.11C718.755 123.463 715.551 124.659 711.715 125.697C707.88 126.735 703.548 127.254 698.719 127.254ZM679.902 84.3396H707.248C707.248 82.3089 706.864 80.2783 706.097 78.2476C705.33 76.1719 704.044 74.4345 702.239 73.0356C700.479 71.6368 698.087 70.9373 695.064 70.9373C690.732 70.9373 687.325 72.2008 684.843 74.7278C682.361 77.2549 680.714 80.4588 679.902 84.3396Z" fill="url(#paint0_linear_393_179)"/>
<defs>
<linearGradient id="paint0_linear_393_179" x1="0" y1="77.4001" x2="1117" y2="77.4001" gradientUnits="userSpaceOnUse">
<stop stop-color="#DEE4B0"/>
<stop offset="1" stop-color="#73E9FF"/>
</linearGradient>
</defs>
</svg>
