<svg width="399" height="104" viewBox="0 0 399 104" fill="none" xmlns="http://www.w3.org/2000/svg">
<path d="M-0.00179368 101.532V6.76883H60.6469V23.5555H17.7325V43.7266H51.0351V60.5133H17.7325V84.7457H62.0006V101.532H-0.00179368ZM100.393 102.886C93.5335 102.886 87.7574 101.284 83.0643 98.0802C78.4164 94.8763 74.8966 90.612 72.505 85.2872C70.1585 79.9624 68.9852 74.1412 68.9852 67.8236C68.9852 61.506 70.1585 55.6849 72.505 50.36C74.8966 45.0352 78.4164 40.7709 83.0643 37.567C87.7574 34.3631 93.5335 32.7611 100.393 32.7611C105.356 32.7611 109.553 33.5959 112.983 35.2656C116.412 36.8901 119.435 38.9884 122.053 41.5606L117.991 45.0804V3.37503e-06H134.778V101.532H118.939L118.127 90.0254L123 93.5451C119.842 96.4332 116.57 98.712 113.186 100.382C109.801 102.051 105.537 102.886 100.393 102.886ZM102.829 89.0777C106.53 89.0777 109.553 88.1752 111.9 86.3702C114.246 84.5652 115.983 82.0833 117.112 78.9245C118.24 75.7206 118.804 72.0203 118.804 67.8236C118.804 63.6269 118.24 59.9492 117.112 56.7904C115.983 53.5865 114.246 51.0821 111.9 49.277C109.553 47.472 106.53 46.5695 102.829 46.5695C99.3095 46.5695 96.3087 47.472 93.8268 49.277C91.3449 51.0821 89.4496 53.5865 88.141 56.7904C86.8323 59.9492 86.178 63.6269 86.178 67.8236C86.178 72.0203 86.8323 75.7206 88.141 78.9245C89.4496 82.0833 91.3449 84.5652 93.8268 86.3702C96.3087 88.1752 99.3095 89.0777 102.829 89.0777ZM178.409 102.886C171.369 102.886 165.751 101.487 161.554 98.6894C157.357 95.8917 154.334 92.056 152.484 87.1824C150.634 82.2638 149.709 76.6231 149.709 70.2604V33.8441H166.495V70.2604C166.495 76.5328 167.533 81.2033 169.609 84.2718C171.73 87.2953 175.159 88.807 179.898 88.807C183.688 88.807 186.824 87.9045 189.306 86.0994C191.833 84.2944 193.932 81.7674 195.601 78.5184L192.623 87.0471V33.8441H209.41V101.532H193.706L192.894 89.7546L196.549 94.4928C194.924 96.5685 192.352 98.4864 188.832 100.246C185.358 102.006 181.883 102.886 178.409 102.886ZM268.981 103.428C259.369 103.428 250.908 101.397 243.598 97.3357C236.287 93.2293 230.579 87.4983 226.472 80.1429C222.411 72.7423 220.38 64.0782 220.38 54.1506C220.38 44.223 222.479 35.5815 226.675 28.226C230.917 20.8254 236.738 15.0945 244.139 11.0332C251.54 6.92677 260.001 4.87356 269.522 4.87356C274.531 4.87356 279.111 5.41506 283.263 6.49808C287.414 7.53596 291.002 8.8446 294.025 10.424L292.13 26.9399C288.7 25.3605 285.158 24.0745 281.503 23.0817C277.893 22.0438 273.854 21.5249 269.387 21.5249C262.753 21.5249 257.203 22.9238 252.735 25.7215C248.313 28.5193 244.974 32.3775 242.718 37.2962C240.461 42.2149 239.333 47.833 239.333 54.1506C239.333 60.4682 240.439 66.0863 242.65 71.005C244.861 75.9236 248.155 79.7819 252.532 82.5796C256.955 85.3774 262.437 86.7763 268.981 86.7763C273.538 86.7763 277.622 86.2799 281.232 85.2872C284.842 84.2944 288.475 82.9858 292.13 81.3613L294.025 97.8772C290.46 99.5468 286.534 100.878 282.248 101.871C278.006 102.909 273.583 103.428 268.981 103.428ZM320.61 102.886C317 102.886 313.706 102.096 310.727 100.517C307.749 98.8925 305.38 96.5685 303.62 93.5451C301.86 90.5217 300.98 86.8666 300.98 82.5796C300.98 78.744 301.86 75.4724 303.62 72.7649C305.425 70.0122 307.772 67.7334 310.66 65.9283C313.593 64.0782 316.752 62.6342 320.136 61.5963C323.566 60.5133 326.927 59.7236 330.222 59.2272C333.561 58.7308 336.494 58.4375 339.021 58.3473C338.841 54.4665 337.848 51.6461 336.043 49.8862C334.238 48.1263 331.169 47.2464 326.837 47.2464C323.814 47.2464 320.858 47.6751 317.97 48.5325C315.127 49.3447 311.901 50.6308 308.291 52.3907L306.801 38.7177C310.863 36.7322 314.924 35.243 318.985 34.2503C323.092 33.2575 327.243 32.7611 331.44 32.7611C336.494 32.7611 340.849 33.6636 344.504 35.4686C348.159 37.2737 350.979 40.1843 352.965 44.2004C354.95 48.1715 355.943 53.4286 355.943 59.9718V78.2476C355.943 81.632 356.101 84.0913 356.417 85.6256C356.733 87.1148 357.319 88.0624 358.177 88.4685C359.034 88.8746 360.275 89.0777 361.9 89.0777H364.066L362.577 102.886H356.485C353.958 102.886 351.701 102.548 349.716 101.871C347.775 101.239 346.106 100.337 344.707 99.1633C343.308 97.99 342.18 96.6137 341.322 95.0343C339.111 97.5162 336.11 99.4566 332.32 100.855C328.574 102.209 324.671 102.886 320.61 102.886ZM327.649 90.0254C329.139 90.0254 330.989 89.6418 333.2 88.8747C335.411 88.0624 337.397 86.8214 339.156 85.1518V69.7189C335.998 69.8543 332.839 70.3732 329.68 71.2757C326.521 72.1782 323.881 73.5094 321.761 75.2693C319.64 77.0292 318.579 79.2404 318.579 81.9028C318.579 84.6554 319.301 86.7086 320.745 88.0624C322.189 89.371 324.491 90.0254 327.649 90.0254ZM390.741 102.886C386.725 102.886 383.431 102.096 380.859 100.517C378.332 98.8925 376.459 96.749 375.241 94.0866C374.022 91.3791 373.413 88.4008 373.413 85.1518V3.37503e-06H390.2V78.2476C390.2 81.8576 390.403 84.4298 390.809 85.9641C391.26 87.4532 392.072 88.3557 393.246 88.6716C394.419 88.9423 396.111 89.0777 398.322 89.0777L396.833 102.886H390.741Z" fill="url(#paint0_linear_440_352)"/>
<defs>
<linearGradient id="paint0_linear_440_352" x1="-10.4258" y1="53.0323" x2="1106.57" y2="53.0323" gradientUnits="userSpaceOnUse">
<stop stop-color="#DEE4B0"/>
<stop offset="1" stop-color="#73E9FF"/>
</linearGradient>
</defs>
</svg>
