<svg width="320" height="97" viewBox="0 0 320 97" fill="none" xmlns="http://www.w3.org/2000/svg">
<path d="M0.000159445 94.7635V2.864e-05H58.3474V16.7867H17.3283V36.9578H49.0064V53.7445H17.3283V94.7635H0.000159445ZM94.5247 96.1173C87.1692 96.1173 80.8968 94.5154 75.7073 91.3115C70.5179 88.1075 66.5468 83.8432 63.7942 78.5184C61.0867 73.1936 59.7329 67.3724 59.7329 61.0548C59.7329 54.6921 61.0867 48.8258 63.7942 43.4559C66.5468 38.0859 70.5179 33.799 75.7073 30.5951C80.8968 27.3461 87.1692 25.7216 94.5247 25.7216C101.88 25.7216 108.153 27.3461 113.342 30.5951C118.531 33.799 122.48 38.0859 125.187 43.4559C127.94 48.8258 129.316 54.6921 129.316 61.0548C129.316 67.3724 127.94 73.1936 125.187 78.5184C122.48 83.8432 118.531 88.1075 113.342 91.3115C108.153 94.5154 101.88 96.1173 94.5247 96.1173ZM94.5247 82.3089C100.165 82.3089 104.497 80.346 107.521 76.42C110.589 72.449 112.124 67.3273 112.124 61.0548C112.124 54.6921 110.589 49.5252 107.521 45.5542C104.497 41.538 100.165 39.53 94.5247 39.53C88.9291 39.53 84.597 41.538 81.5285 45.5542C78.46 49.5252 76.9257 54.6921 76.9257 61.0548C76.9257 67.3273 78.46 72.449 81.5285 76.42C84.597 80.346 88.9291 82.3089 94.5247 82.3089ZM141.001 94.7635V27.0753H156.705L157.382 39.6653L153.456 34.521C156.028 32.355 159.096 30.392 162.661 28.6322C166.226 26.8723 170.378 25.9923 175.116 25.9923C183.78 25.9923 190.21 28.8803 194.407 34.6564C198.604 40.3873 200.702 47.833 200.702 56.9935V94.7635H183.915V58.3473C183.915 52.0297 182.855 47.3592 180.734 44.3358C178.658 41.3124 175.251 39.8007 170.513 39.8007C166.677 39.8007 163.541 40.7483 161.104 42.6436C158.668 44.4938 156.524 46.9757 154.674 50.0893L157.788 41.8314V94.7635H141.001ZM230.317 96.1173C226.707 96.1173 223.413 95.3276 220.434 93.7482C217.456 92.1237 215.087 89.7997 213.327 86.7763C211.567 83.7529 210.687 80.0978 210.687 75.8108C210.687 71.9752 211.567 68.7036 213.327 65.9961C215.132 63.2434 217.479 60.9646 220.367 59.1595C223.3 57.3094 226.459 55.8654 229.843 54.8275C233.272 53.7445 236.634 52.9548 239.928 52.4584C243.268 51.962 246.201 51.6687 248.728 51.5785C248.547 47.6977 247.555 44.8773 245.75 43.1174C243.945 41.3575 240.876 40.4776 236.544 40.4776C233.521 40.4776 230.565 40.9063 227.677 41.7637C224.834 42.5759 221.608 43.862 217.997 45.6219L216.508 31.9489C220.57 29.9634 224.631 28.4742 228.692 27.4815C232.799 26.4887 236.95 25.9923 241.147 25.9923C246.201 25.9923 250.556 26.8948 254.211 28.6998C257.866 30.5049 260.686 33.4155 262.672 37.4316C264.657 41.4027 265.65 46.6598 265.65 53.203V71.4788C265.65 74.8632 265.808 77.3225 266.124 78.8568C266.44 80.346 267.026 81.2936 267.884 81.6997C268.741 82.1059 269.982 82.3089 271.607 82.3089H273.773L272.283 96.1173H266.192C263.664 96.1173 261.408 95.7789 259.423 95.102C257.482 94.4702 255.813 93.5677 254.414 92.3945C253.015 91.2212 251.887 89.8449 251.029 88.2655C248.818 90.7474 245.817 92.6878 242.027 94.0867C238.281 95.4404 234.378 96.1173 230.317 96.1173ZM237.356 83.2566C238.845 83.2566 240.696 82.873 242.907 82.1059C245.118 81.2936 247.103 80.0526 248.863 78.383V62.9501C245.705 63.0855 242.546 63.6044 239.387 64.5069C236.228 65.4094 233.588 66.7406 231.467 68.5005C229.347 70.2604 228.286 72.4716 228.286 75.134C228.286 77.8866 229.008 79.9398 230.452 81.2936C231.896 82.6022 234.198 83.2566 237.356 83.2566ZM283.12 94.7635V27.0753H298.824L299.23 34.2503C300.944 32.355 303.359 30.4597 306.472 28.5645C309.586 26.6692 312.993 25.7216 316.693 25.7216C317.776 25.7216 318.769 25.8118 319.672 25.9923L318.453 42.5082C317.46 42.2375 316.468 42.057 315.475 41.9667C314.527 41.8765 313.58 41.8314 312.632 41.8314C309.789 41.8314 307.194 42.4857 304.848 43.7943C302.501 45.103 300.854 46.7049 299.907 48.6002V94.7635H283.12Z" fill="url(#paint0_linear_387_183)"/>
<defs>
<linearGradient id="paint0_linear_387_183" x1="-10.4238" y1="46.2635" x2="1106.58" y2="46.2635" gradientUnits="userSpaceOnUse">
<stop stop-color="#DEE4B0"/>
<stop offset="1" stop-color="#73E9FF"/>
</linearGradient>
</defs>
</svg>
