<svg width="854" height="131" viewBox="0 0 854 131" fill="none" xmlns="http://www.w3.org/2000/svg">
<path d="M47.7878 98.5541C37.7699 98.5541 29.1961 96.5234 22.0663 92.4621C14.9364 88.3557 9.47625 82.6022 5.68571 75.2016C1.89517 67.8011 -0.000105494 59.1144 -0.000105494 49.1417C-0.000105494 39.2592 2.09823 30.6402 6.2949 23.2848C10.5367 15.8842 16.3804 10.1533 23.8262 6.09196C31.2719 2.03067 39.8457 2.22113e-05 49.5477 2.22113e-05C54.5566 2.22113e-05 59.3399 0.518965 63.8976 1.55685C68.5004 2.59474 72.4263 3.92594 75.6753 5.55046L73.7801 22.0664C70.3957 20.487 66.6502 19.2009 62.5438 18.2082C58.4825 17.1703 54.1505 16.6513 49.5477 16.6513C42.5081 16.6513 36.732 18.0728 32.2195 20.9157C27.7069 23.7135 24.3677 27.5491 22.2016 32.4227C20.0356 37.2511 18.9526 42.7339 18.9526 48.8709C18.9526 55.3239 20.0356 61.0322 22.2016 65.996C24.4128 70.9598 27.7069 74.8632 32.0841 77.7061C36.4613 80.5039 41.9215 81.9028 48.4647 81.9028C50.4502 81.9028 52.526 81.7674 54.692 81.4967C56.9031 81.2259 59.1594 80.8649 61.4608 80.4136V63.4916H48.4647V49.1417H78.789V91.3791C75.4948 93.3195 71.1177 95.0117 65.6575 96.4557C60.2424 97.8546 54.2859 98.5541 47.7878 98.5541ZM95.5841 96.6588V1.89529H112.912V96.6588H95.5841ZM161.272 98.5541C157.437 98.5541 153.488 98.1705 149.427 97.4034C145.366 96.6814 141.598 95.8014 138.123 94.7635C134.648 93.6805 131.896 92.6426 129.865 91.6499L131.896 73.2387C135.054 74.773 138.349 76.1944 141.778 77.503C145.208 78.8117 148.727 79.8721 152.338 80.6844C155.948 81.4967 159.603 81.9028 163.303 81.9028C167.906 81.9028 171.606 81.0003 174.404 79.1953C177.202 77.3902 178.601 74.6376 178.601 70.9373C178.601 68.0944 177.811 65.8155 176.231 64.1008C174.652 62.3409 172.238 60.7841 168.989 59.4303C165.74 58.0314 161.588 56.452 156.534 54.6921C151.48 52.9322 146.945 50.9467 142.929 48.7356C138.913 46.4793 135.731 43.6364 133.385 40.2068C131.038 36.7773 129.865 32.4001 129.865 27.0753C129.865 21.8408 131.151 17.1928 133.723 13.1315C136.295 9.02512 140.131 5.82121 145.23 3.51981C150.375 1.17329 156.76 2.22113e-05 164.386 2.22113e-05C170.162 2.22113e-05 175.667 0.654343 180.902 1.96298C186.137 3.2265 190.604 4.60282 194.304 6.09196L192.544 23.8263C187.22 21.4346 182.211 19.6296 177.518 18.4112C172.87 17.1477 168.131 16.516 163.303 16.516C158.249 16.516 154.346 17.3508 151.593 19.0204C148.84 20.6901 147.464 23.1945 147.464 26.5338C147.464 29.1962 148.231 31.3397 149.765 32.9642C151.3 34.5887 153.488 35.9876 156.331 37.1609C159.174 38.289 162.581 39.4848 166.552 40.7483C173.411 42.9144 179.165 45.306 183.813 47.9233C188.506 50.4954 192.025 53.6317 194.372 57.332C196.764 60.9871 197.959 65.5222 197.959 70.9373C197.959 73.6448 197.531 76.6005 196.673 79.8044C195.816 82.9632 194.124 85.9641 191.597 88.807C189.07 91.6499 185.369 93.9964 180.496 95.8466C175.667 97.6516 169.26 98.5541 161.272 98.5541ZM230.228 98.0126C225.986 98.0126 222.534 97.1552 219.871 95.4404C217.209 93.6805 215.246 91.4468 213.982 88.7393C212.719 86.0318 212.087 83.2114 212.087 80.2783V42.779H202.475L203.965 28.9706H212.087V14.0792L228.874 12.3193V28.9706H243.765V42.779H228.874V73.3741C228.874 76.8036 229.077 79.2855 229.483 80.8198C229.889 82.3089 230.814 83.2565 232.258 83.6627C233.702 84.0237 236.004 84.2042 239.162 84.2042H243.765L242.276 98.0126H230.228ZM254.697 96.6588V28.9706H271.484V96.6588H254.697ZM254.697 18.682V1.89529H271.484V18.682H254.697ZM318.626 98.0126C310.865 98.0126 304.344 96.4332 299.064 93.2744C293.83 90.0705 289.859 85.8287 287.151 80.549C284.489 75.2242 283.158 69.3579 283.158 62.9501C283.158 56.4971 284.489 50.6083 287.151 45.2834C289.814 39.9135 293.807 35.6266 299.132 32.4227C304.457 29.2188 311.136 27.6168 319.168 27.6168C322.958 27.6168 326.388 28.0455 329.456 28.9029C332.525 29.7152 335.142 30.7305 337.308 31.9489L335.955 45.4865C333.879 44.4035 331.532 43.501 328.915 42.779C326.343 42.057 323.635 41.696 320.792 41.696C314.294 41.696 309.263 43.6589 305.698 47.5848C302.133 51.5108 300.351 56.6325 300.351 62.9501C300.351 68.9518 302.178 74.0058 305.833 78.1122C309.488 82.1735 314.43 84.2042 320.657 84.2042C323.319 84.2042 325.937 83.8206 328.509 83.0535C331.126 82.2412 333.653 81.1356 336.09 79.7368L337.579 93.9513C335.233 95.1697 332.39 96.1399 329.05 96.8619C325.756 97.629 322.282 98.0126 318.626 98.0126ZM380.923 98.0126C372.755 98.0126 365.941 96.3881 360.481 93.139C355.066 89.8449 351.005 85.5128 348.297 80.1429C345.59 74.7278 344.236 68.8164 344.236 62.4086C344.236 56.2264 345.499 50.518 348.026 45.2834C350.598 40.0489 354.344 35.8522 359.263 32.6934C364.181 29.4895 370.183 27.8876 377.268 27.8876C383.766 27.8876 389.181 29.2188 393.513 31.8812C397.845 34.5436 401.094 38.1085 403.26 42.5759C405.426 46.9982 406.509 51.8943 406.509 57.2643C406.509 58.7534 406.419 60.2651 406.238 61.7994C406.058 63.2885 405.787 64.8453 405.426 66.4699H361.699C362.331 70.6665 363.64 74.0735 365.625 76.6908C367.656 79.2629 370.115 81.1582 373.003 82.3766C375.936 83.595 379.073 84.2042 382.412 84.2042C386.338 84.2042 389.993 83.7078 393.377 82.715C396.762 81.6772 399.875 80.3234 402.718 78.6537L403.531 92.8683C400.958 94.222 397.755 95.4179 393.919 96.4557C390.083 97.4936 385.751 98.0126 380.923 98.0126ZM362.105 55.0982H389.451C389.451 53.0676 389.068 51.0369 388.301 49.0063C387.534 46.9305 386.248 45.1932 384.443 43.7943C382.683 42.3954 380.291 41.696 377.268 41.696C372.936 41.696 369.529 42.9595 367.047 45.4865C364.565 48.0135 362.918 51.2174 362.105 55.0982ZM450.947 96.6588V1.89529H468.275V81.2259H507.264V96.6588H450.947ZM547.896 98.0126C539.728 98.0126 532.914 96.3881 527.454 93.139C522.039 89.8449 517.978 85.5128 515.27 80.1429C512.563 74.7278 511.209 68.8164 511.209 62.4086C511.209 56.2264 512.472 50.518 514.999 45.2834C517.572 40.0489 521.317 35.8522 526.236 32.6934C531.154 29.4895 537.156 27.8876 544.241 27.8876C550.739 27.8876 556.154 29.2188 560.486 31.8812C564.818 34.5436 568.067 38.1085 570.233 42.5759C572.399 46.9982 573.482 51.8943 573.482 57.2643C573.482 58.7534 573.392 60.2651 573.211 61.7994C573.031 63.2885 572.76 64.8453 572.399 66.4699H528.672C529.304 70.6665 530.613 74.0735 532.598 76.6908C534.629 79.2629 537.088 81.1582 539.976 82.3766C542.91 83.595 546.046 84.2042 549.385 84.2042C553.311 84.2042 556.966 83.7078 560.351 82.715C563.735 81.6772 566.849 80.3234 569.692 78.6537L570.504 92.8683C567.932 94.222 564.728 95.4179 560.892 96.4557C557.056 97.4936 552.724 98.0126 547.896 98.0126ZM529.079 55.0982H556.425C556.425 53.0676 556.041 51.0369 555.274 49.0063C554.507 46.9305 553.221 45.1932 551.416 43.7943C549.656 42.3954 547.264 41.696 544.241 41.696C539.909 41.696 536.502 42.9595 534.02 45.4865C531.538 48.0135 529.891 51.2174 529.079 55.0982ZM599.562 98.0126C595.952 98.0126 592.658 97.2229 589.68 95.6435C586.701 94.019 584.332 91.695 582.572 88.6716C580.812 85.6482 579.933 81.993 579.933 77.7061C579.933 73.8704 580.812 70.5988 582.572 67.8913C584.377 65.1387 586.724 62.8598 589.612 61.0548C592.545 59.2047 595.704 57.7606 599.088 56.7228C602.518 55.6397 605.88 54.8501 609.174 54.3537C612.513 53.8573 615.446 53.564 617.973 53.4737C617.793 49.5929 616.8 46.7726 614.995 45.0127C613.19 43.2528 610.121 42.3729 605.789 42.3729C602.766 42.3729 599.81 42.8015 596.922 43.6589C594.079 44.4712 590.853 45.7573 587.243 47.5172L585.754 33.8441C589.815 31.8586 593.876 30.3695 597.938 29.3767C602.044 28.384 606.196 27.8876 610.392 27.8876C615.446 27.8876 619.801 28.7901 623.456 30.5951C627.111 32.4001 629.932 35.3107 631.917 39.3269C633.903 43.2979 634.895 48.555 634.895 55.0982V73.3741C634.895 76.7585 635.053 79.2178 635.369 80.7521C635.685 82.2412 636.272 83.1889 637.129 83.595C637.986 84.0011 639.227 84.2042 640.852 84.2042H643.018L641.529 98.0126H635.437C632.91 98.0126 630.654 97.6741 628.668 96.9973C626.728 96.3655 625.058 95.463 623.659 94.2897C622.26 93.1165 621.132 91.7401 620.275 90.1607C618.064 92.6426 615.063 94.583 611.272 95.9819C607.527 97.3357 603.623 98.0126 599.562 98.0126ZM606.602 85.1518C608.091 85.1518 609.941 84.7682 612.152 84.0011C614.363 83.1889 616.349 81.9479 618.109 80.2783V64.8453C614.95 64.9807 611.791 65.4997 608.632 66.4022C605.474 67.3047 602.834 68.6359 600.713 70.3958C598.592 72.1557 597.531 74.3668 597.531 77.0292C597.531 79.7819 598.253 81.8351 599.697 83.1889C601.141 84.4975 603.443 85.1518 606.602 85.1518ZM679.17 130.774C672.852 130.774 667.324 129.984 662.586 128.405C657.893 126.87 654.238 124.659 651.621 121.771C649.049 118.883 647.762 115.431 647.762 111.415C647.762 108.03 648.688 105.007 650.538 102.345C652.433 99.7273 655.163 97.4259 658.728 95.4404C656.923 94.3574 655.479 93.0036 654.396 91.3791C653.313 89.7546 652.771 87.9045 652.771 85.8287C652.771 83.6627 653.381 81.79 654.599 80.2106C655.862 78.5861 657.51 77.3 659.54 76.3523C656.111 73.9156 653.516 70.8019 651.756 67.0114C649.996 63.1757 649.116 59.0242 649.116 54.5567C649.116 49.6832 650.177 45.2158 652.298 41.1545C654.418 37.048 657.51 33.7764 661.571 31.3397C665.677 28.8578 670.686 27.6168 676.598 27.6168C679.666 27.6168 682.487 28.0004 685.059 28.7675C687.676 29.5347 690 30.5951 692.031 31.9489C693.384 31.1817 695.347 30.5049 697.919 29.9182C700.492 29.2865 703.357 28.9706 706.516 28.9706C707.283 28.9706 708.005 28.9706 708.682 28.9706C709.404 28.9706 710.126 28.9706 710.848 28.9706L709.765 39.5299C708.772 39.5299 707.757 39.5299 706.719 39.5299C705.726 39.5299 704.711 39.5299 703.673 39.5299C703.267 39.5299 702.725 39.5299 702.048 39.5299C701.372 39.5299 700.65 39.5751 699.882 39.6653C701.236 41.7411 702.251 44.0651 702.928 46.6372C703.605 49.2094 703.944 51.8492 703.944 54.5567C703.944 59.4303 702.883 63.9203 700.762 68.0267C698.687 72.088 695.618 75.3596 691.557 77.8415C687.495 80.2783 682.509 81.4967 676.598 81.4967C675.334 81.4967 674.116 81.4064 672.942 81.2259C671.769 81.0454 670.596 80.8198 669.423 80.549C668.43 80.9551 667.934 81.6772 667.934 82.715C667.934 83.9334 668.678 84.8585 670.167 85.4903C671.656 86.122 673.98 86.6861 677.139 87.1825L688.782 88.6716C696.047 89.6192 701.733 91.6724 705.839 94.8312C709.991 97.99 712.066 102.48 712.066 108.301C712.066 112.814 710.758 116.74 708.14 120.079C705.568 123.463 701.823 126.081 696.904 127.931C691.985 129.826 686.074 130.774 679.17 130.774ZM679.847 118.048C685.532 118.048 689.842 117.349 692.775 115.95C695.708 114.551 697.175 112.408 697.175 109.52C697.175 106.947 696.137 105.052 694.061 103.834C692.031 102.615 688.782 101.668 684.314 100.991L669.49 98.8248C667.279 99.6822 665.429 100.855 663.94 102.345C662.451 103.879 661.706 105.864 661.706 108.301C661.706 111.595 663.308 114.032 666.512 115.612C669.716 117.236 674.161 118.048 679.847 118.048ZM676.598 69.042C680.614 69.042 683.637 67.7334 685.668 65.1161C687.744 62.4537 688.782 58.9339 688.782 54.5567C688.782 50.1344 687.744 46.6147 685.668 43.9974C683.637 41.3801 680.614 40.0715 676.598 40.0715C672.536 40.0715 669.468 41.3801 667.392 43.9974C665.316 46.6147 664.278 50.1344 664.278 54.5567C664.278 58.9339 665.316 62.4537 667.392 65.1161C669.468 67.7334 672.536 69.042 676.598 69.042ZM748.209 98.0126C741.169 98.0126 735.551 96.6137 731.354 93.8159C727.158 91.0181 724.134 87.1825 722.284 82.3089C720.434 77.3902 719.509 71.7495 719.509 65.3869V28.9706H736.295V65.3869C736.295 71.6593 737.333 76.3298 739.409 79.3983C741.53 82.4217 744.96 83.9334 749.698 83.9334C753.488 83.9334 756.625 83.0309 759.106 81.2259C761.633 79.4209 763.732 76.8939 765.401 73.6448L762.423 82.1735V28.9706H779.21V96.6588H763.506L762.694 84.8811L766.349 89.6192C764.725 91.695 762.152 93.6128 758.633 95.3727C755.158 97.1326 751.683 98.0126 748.209 98.0126ZM827.506 98.0126C819.339 98.0126 812.525 96.3881 807.065 93.139C801.65 89.8449 797.588 85.5128 794.881 80.1429C792.173 74.7278 790.819 68.8164 790.819 62.4086C790.819 56.2264 792.083 50.518 794.61 45.2834C797.182 40.0489 800.928 35.8522 805.846 32.6934C810.765 29.4895 816.767 27.8876 823.851 27.8876C830.349 27.8876 835.764 29.2188 840.096 31.8812C844.428 34.5436 847.678 38.1085 849.844 42.5759C852.01 46.9982 853.093 51.8943 853.093 57.2643C853.093 58.7534 853.002 60.2651 852.822 61.7994C852.641 63.2885 852.371 64.8453 852.01 66.4699H808.283C808.915 70.6665 810.223 74.0735 812.209 76.6908C814.24 79.2629 816.699 81.1582 819.587 82.3766C822.52 83.595 825.656 84.2042 828.996 84.2042C832.921 84.2042 836.577 83.7078 839.961 82.715C843.345 81.6772 846.459 80.3234 849.302 78.6537L850.114 92.8683C847.542 94.222 844.338 95.4179 840.503 96.4557C836.667 97.4936 832.335 98.0126 827.506 98.0126ZM808.689 55.0982H836.035C836.035 53.0676 835.652 51.0369 834.884 49.0063C834.117 46.9305 832.831 45.1932 831.026 43.7943C829.266 42.3954 826.875 41.696 823.851 41.696C819.519 41.696 816.112 42.9595 813.63 45.4865C811.148 48.0135 809.501 51.2174 808.689 55.0982Z" fill="url(#paint0_linear_239_123)"/>
<defs>
<linearGradient id="paint0_linear_239_123" x1="-4.73828" y1="48.1588" x2="1112.26" y2="48.1588" gradientUnits="userSpaceOnUse">
<stop stop-color="#DEE4B0"/>
<stop offset="1" stop-color="#73E9FF"/>
</linearGradient>
</defs>
</svg>
