<svg width="2029" height="2340" viewBox="0 0 2029 2340" fill="none" xmlns="http://www.w3.org/2000/svg">
<path opacity="0.1" d="M186.052 128.512H978M184.001 262.031H978M184.001 395.551H978M184.001 514.461H978M186.052 647.98H978M296.94 6.96418V781.5M408.685 6.96418V781.5M525.897 6.96418V781.5M635.591 4.93501V781.5M749.385 4.93501V781.5M864.547 6.96418V781.5M184 2.5H978V781.5H184.001L184 2.5Z" stroke="#989495" stroke-width="5"/>
<path opacity="0.1" d="M978 2.5H1772V781.5H978.001M980.052 128.512H1772M978.001 262.031H1772M978.001 395.551H1772M978.001 514.461H1772M980.052 647.98H1772M1090.94 6.96418V781.5M1202.68 6.96418V781.5M1319.9 6.96418V781.5M1429.59 4.93501V781.5M1543.39 4.93501V781.5M1658.55 6.96418V781.5" stroke="#989495" stroke-width="5"/>
<path opacity="0.1" d="M184 781.5L184.001 1560.5M978 781.5V1560.5M186.052 907.512H978M184.001 1041.03H978M184.001 1174.55H978M184.001 1293.46H978M186.052 1426.98H978M296.94 785.964V1560.5M408.685 785.964V1560.5M525.897 785.964V1560.5M635.591 783.935V1560.5M749.385 783.935V1560.5M864.547 785.964V1560.5" stroke="#989495" stroke-width="5"/>
<path opacity="0.1" d="M1772 781.5V1560.5M980.05 907.512H1772M978 1041.03H1772M978 1174.55H1772M978 1293.46H1772M980.05 1426.98H1772M1090.94 785.964V1560.5M1202.68 785.964V1560.5M1319.9 785.964V1560.5M1429.59 783.935V1560.5M1543.38 783.935V1560.5M1658.55 785.964V1560.5" stroke="#989495" stroke-width="5"/>
<path opacity="0.1" d="M184.001 2339.5L184 1560.5H978V2339.5M186.052 1686.51H978M184.001 1820.03H978M184.001 1953.55H978M184.001 2072.46H978M186.052 2205.98H978M296.94 1564.96V2339.5M408.685 1564.96V2339.5M525.897 1564.96V2339.5M635.591 1562.94V2339.5M749.385 1562.94V2339.5M864.547 1564.96V2339.5" stroke="#989495" stroke-width="5"/>
<path opacity="0.1" d="M978 1560.5H1772V2339.5M980.052 1686.51H1772M978.001 1820.03H1772M978.001 1953.55H1772M978.001 2072.46H1772M980.052 2205.98H1772M1090.94 1564.96V2339.5M1202.68 1564.96V2339.5M1319.9 1564.96V2339.5M1429.59 1562.94V2339.5M1543.39 1562.94V2339.5M1658.55 1564.96V2339.5" stroke="#989495" stroke-width="5"/>
<path d="M387.822 1559.36C389.11 1618.43 358.751 1620.18 270.855 1595.28C182.959 1570.39 307.869 1428.14 449.056 1389.07C442.929 1421.8 441.175 1439.8 414.198 1476.95C395.487 1505.5 387.96 1522.79 387.822 1559.36Z" fill="#0842A1"/>
<path d="M397.444 1582.87L331.799 1505.91L313.663 1483.12L367.348 1437.62L404.765 1489.24L443.808 1539.99L397.444 1582.87Z" fill="#596CB8"/>
<path d="M445.435 1541.74C461.703 1581.12 433.234 1610 397.444 1582.87L374.669 1556.62L423.473 1512.87L445.435 1541.74Z" fill="#325EC1"/>
<path d="M147.834 1450.89C129.215 1448.45 115.064 1442.8 83.6835 1425.69L106.595 1382.92C136.69 1392.62 150.719 1394.07 169.218 1387.51L181.437 1401.25C163.221 1419.36 155.837 1430.23 147.834 1450.89Z" fill="#7B96FF"/>
<path d="M166.436 1469.15C168.217 1468.17 170.452 1468.74 171.541 1470.46L201.66 1517.92C202.815 1519.74 202.248 1522.16 200.403 1523.28L140.802 1559.33L79.1151 1600.24C77.319 1601.43 74.895 1600.92 73.7403 1599.1L43.6206 1551.63C42.5311 1549.91 42.966 1547.64 44.6135 1546.45L103.669 1503.71L166.436 1469.15Z" fill="#667DD4"/>
<path d="M39.766 1526.23C40.5787 1526.17 41.3832 1526.49 41.9442 1527.08C51.8812 1537.53 56.8917 1544.64 64.0176 1558C64.3029 1558.54 64.7548 1558.97 65.3034 1559.23L105.383 1578.06C107.387 1579 107.555 1581.79 105.678 1582.96L55.019 1614.7C53.8494 1615.43 52.3128 1615.19 51.4119 1614.15C28.9976 1588.14 18.5663 1573.83 5.25106 1551.21C4.73268 1550.33 4.7368 1549.22 5.26711 1548.35C14.821 1532.61 20.0383 1527.49 39.766 1526.23Z" fill="#325EC1"/>
<rect x="68.5312" y="1529.05" width="65.5234" height="30.5481" transform="rotate(57.3909 68.5312 1529.05)" fill="#325EC1"/>
<g filter="url(#filter0_d_1316_398)">
<ellipse cx="235.22" cy="1497.83" rx="126.774" ry="112.264" fill="url(#paint0_linear_1316_398)"/>
</g>
<path d="M208.773 1517.05L232.175 1426.49L241.502 1428.87L211.881 1532.18L208.773 1517.05Z" fill="url(#paint1_linear_1316_398)"/>
<g filter="url(#filter1_d_1316_398)">
<path d="M514.996 1271.39C518.052 1343.94 463.066 1460.15 332.471 1449.33C210.011 1439.18 104.004 1386.7 110.234 1262.98C115.58 1156.83 224.789 1069 311.851 1075.88C423.201 1075.88 510.271 1159.22 514.996 1271.39Z" fill="white"/>
</g>
<path d="M469.855 1295.94C472.274 1348.9 436.545 1427.39 333.152 1419.49C236.199 1412.08 138.821 1357.83 143.754 1267.51C147.986 1190.02 213.251 1133.1 295.738 1140.26C393.484 1140.26 466.114 1214.06 469.855 1295.94Z" fill="#09132C"/>
<path d="M452.873 1291.52C452.873 1356.47 388.868 1410.47 334.499 1402.26C203.142 1382.4 160.375 1339.67 160.375 1274.72C160.375 1209.76 214.598 1149.47 300.896 1157.11C378.504 1157.11 452.873 1226.57 452.873 1291.52Z" fill="url(#paint2_linear_1316_398)"/>
<path d="M224.352 1249.62C224.092 1266.13 223.237 1275.81 243.883 1286.57C245.451 1287.39 247.149 1287.97 248.892 1288.27C266.904 1291.39 276.301 1286.04 286.975 1269.48" stroke="black" stroke-width="3.49752" stroke-linecap="round"/>
<path d="M335.445 1282.43C335.186 1298.93 334.331 1308.62 354.976 1319.38C356.545 1320.19 358.243 1320.78 359.985 1321.08C377.998 1324.2 387.395 1318.84 398.069 1302.28" stroke="black" stroke-width="3.49752" stroke-linecap="round"/>
<path d="M269.348 1330.44C269.348 1330.44 294.76 1353.6 320.137 1345.96" stroke="black" stroke-width="3.14777" stroke-linecap="round"/>
<path d="M267.01 1534.79C268.462 1533.37 270.769 1533.33 272.279 1534.69L314.03 1572.33C315.631 1573.78 315.733 1576.25 314.255 1577.82L266.514 1628.55L218.066 1684.51C216.656 1686.14 214.182 1686.29 212.581 1684.85L170.83 1647.21C169.319 1645.84 169.13 1643.54 170.397 1641.95L215.819 1584.93L267.01 1534.79Z" fill="url(#paint3_linear_1316_398)"/>
<path d="M160.299 1623.77C161.068 1623.5 161.927 1623.59 162.626 1624.01C175.004 1631.41 181.739 1636.92 192.187 1647.87C192.605 1648.31 193.157 1648.61 193.755 1648.71L237.418 1656.1C239.601 1656.47 240.511 1659.11 239.018 1660.74L198.731 1704.9C197.801 1705.92 196.257 1706.11 195.109 1705.34C166.537 1686.3 152.651 1675.32 133.752 1657.09C133.016 1656.38 132.724 1655.32 133.001 1654.34C137.98 1636.61 141.632 1630.28 160.299 1623.77Z" fill="#325EC1"/>
<rect x="188.766" y="1618.77" width="65.5234" height="30.5481" transform="rotate(41.8266 188.766 1618.77)" fill="#325EC1"/>
<path d="M35.5721 1383.69C30.9899 1368.41 36.3358 1344.74 69.175 1345.5C90.0976 1348.94 90.9161 1358.41 91.3223 1376.05L106.154 1383.69L83.6853 1425.69C83.6853 1425.69 38.9122 1396.99 35.5721 1383.69Z" fill="#325EC1"/>
<ellipse cx="241.289" cy="1192.04" rx="33.8159" ry="18.698" transform="rotate(-32.0056 241.289 1192.04)" fill="#90BDF0"/>
<path d="M1669.19 639.335L1748.72 588.74C1820.38 688.868 1889.81 705.851 2004.02 749.021L1892.67 879.356C1784.52 836.842 1736.33 782.489 1669.19 639.335Z" fill="url(#paint4_linear_1316_398)"/>
<path d="M1964.8 794.843C1870.63 739.735 1816.23 719.326 1732.27 603.263L1693.24 628.121C1753.37 732.461 1798.75 782.602 1915.71 852.042L1964.8 794.843Z" fill="url(#paint5_linear_1316_398)"/>
<g filter="url(#filter2_d_1316_398)">
<path d="M1463.73 225.587C1461.75 224.922 1459.62 226.1 1459.17 228.094C1443.78 296.93 1445.33 329.406 1450.32 379.791C1450.56 382.258 1453.29 383.71 1455.51 382.556L1613.71 300.253C1616.07 299.027 1616.2 295.757 1613.94 294.32C1570.12 266.49 1529.92 247.819 1463.73 225.587Z" fill="#23583E"/>
</g>
<path d="M1509.41 557.695C1507.39 556.184 1504.48 557.279 1503.96 559.748C1490.42 623.35 1495.18 660.67 1516.9 723.86C1517.52 725.665 1519.49 726.655 1521.3 726.047C1556.39 714.249 1574.91 703.516 1600.68 676.981C1601.68 675.958 1601.94 674.403 1601.35 673.104C1577.36 620.347 1557.31 593.516 1509.41 557.695Z" fill="#23583E"/>
<path d="M1742.92 423.576C1742.57 421.316 1744.61 419.337 1746.96 419.686C1815.98 429.956 1845.14 463.163 1895.2 509.721C1896.57 510.991 1896.65 513.109 1895.36 514.476C1865.84 545.797 1851.45 545.6 1812.47 561.758C1811.02 562.358 1809.31 561.985 1808.3 560.834C1769.49 516.407 1752.87 486.793 1742.92 423.576Z" fill="#23583E"/>
<rect width="132.813" height="37.2498" rx="3.14777" transform="matrix(-0.871595 0.490227 0.509762 0.860315 1751.61 560.4)" fill="#35674B"/>
<g filter="url(#filter3_d_1316_398)">
<path d="M1590.65 279.584L1447.85 358.908C1460.52 503.915 1495.28 566.456 1570.67 668.93L1811.05 536.26C1759.32 420.007 1720.65 359.338 1590.65 279.584Z" fill="#388861"/>
</g>
<g filter="url(#filter4_d_1316_398)">
<path d="M1538.72 314.038C1534.69 311.935 1529.83 314.501 1529.44 318.929L1502.35 629.793C1501.91 634.784 1507.38 638.27 1511.83 635.842L1816.24 469.793C1820.62 467.404 1820.51 461.185 1816.05 458.853L1538.72 314.038Z" fill="url(#paint6_linear_1316_398)"/>
</g>
<ellipse cx="18.2428" cy="21.9442" rx="18.2428" ry="21.9442" transform="matrix(-0.915325 0.402716 0.416511 0.909131 1671.36 418.491)" fill="#081D0F"/>
<ellipse cx="18.2428" cy="21.9442" rx="18.2428" ry="21.9442" transform="matrix(-0.915325 0.402716 0.416511 0.909131 1593.67 461.824)" fill="#081D0F"/>
<path d="M1658.81 482.313C1658.81 482.313 1650.76 517.484 1621.63 503.583" stroke="black" stroke-width="3.14777" stroke-linecap="round"/>
<defs>
<filter id="filter0_d_1316_398" x="99.7015" y="1379.27" width="267.541" height="238.518" filterUnits="userSpaceOnUse" color-interpolation-filters="sRGB">
<feFlood flood-opacity="0" result="BackgroundImageFix"/>
<feColorMatrix in="SourceAlpha" type="matrix" values="0 0 0 0 0 0 0 0 0 0 0 0 0 0 0 0 0 0 127 0" result="hardAlpha"/>
<feOffset dx="-1.74876" dy="0.699505"/>
<feGaussianBlur stdDeviation="3.49752"/>
<feComposite in2="hardAlpha" operator="out"/>
<feColorMatrix type="matrix" values="0 0 0 0 0 0 0 0 0 0 0 0 0 0 0 0 0 0 0.25 0"/>
<feBlend mode="normal" in2="BackgroundImageFix" result="effect1_dropShadow_1316_398"/>
<feBlend mode="normal" in="SourceGraphic" in2="effect1_dropShadow_1316_398" result="shape"/>
</filter>
<filter id="filter1_d_1316_398" x="100.529" y="1072" width="422.632" height="392.021" filterUnits="userSpaceOnUse" color-interpolation-filters="sRGB">
<feFlood flood-opacity="0" result="BackgroundImageFix"/>
<feColorMatrix in="SourceAlpha" type="matrix" values="0 0 0 0 0 0 0 0 0 0 0 0 0 0 0 0 0 0 127 0" result="hardAlpha"/>
<feOffset dx="-0.699505" dy="5.24629"/>
<feGaussianBlur stdDeviation="4.37191"/>
<feComposite in2="hardAlpha" operator="out"/>
<feColorMatrix type="matrix" values="0 0 0 0 0 0 0 0 0 0 0 0 0 0 0 0 0 0 0.25 0"/>
<feBlend mode="normal" in2="BackgroundImageFix" result="effect1_dropShadow_1316_398"/>
<feBlend mode="normal" in="SourceGraphic" in2="effect1_dropShadow_1316_398" result="shape"/>
</filter>
<filter id="filter2_d_1316_398" x="1420.62" y="225.4" width="221.174" height="288.715" filterUnits="userSpaceOnUse" color-interpolation-filters="sRGB">
<feFlood flood-opacity="0" result="BackgroundImageFix"/>
<feColorMatrix in="SourceAlpha" type="matrix" values="0 0 0 0 0 0 0 0 0 0 0 0 0 0 0 0 0 0 127 0" result="hardAlpha"/>
<feOffset dy="104.926"/>
<feGaussianBlur stdDeviation="13.1157"/>
<feComposite in2="hardAlpha" operator="out"/>
<feColorMatrix type="matrix" values="0 0 0 0 0 0 0 0 0 0 0 0 0 0 0 0 0 0 0.25 0"/>
<feBlend mode="normal" in2="BackgroundImageFix" result="effect1_dropShadow_1316_398"/>
<feBlend mode="normal" in="SourceGraphic" in2="effect1_dropShadow_1316_398" result="shape"/>
</filter>
<filter id="filter3_d_1316_398" x="1438.06" y="279.585" width="373.684" height="404.734" filterUnits="userSpaceOnUse" color-interpolation-filters="sRGB">
<feFlood flood-opacity="0" result="BackgroundImageFix"/>
<feColorMatrix in="SourceAlpha" type="matrix" values="0 0 0 0 0 0 0 0 0 0 0 0 0 0 0 0 0 0 127 0" result="hardAlpha"/>
<feOffset dx="-4.54678" dy="10.1428"/>
<feGaussianBlur stdDeviation="2.62314"/>
<feComposite in2="hardAlpha" operator="out"/>
<feColorMatrix type="matrix" values="0 0 0 0 0 0 0 0 0 0 0 0 0 0 0 0 0 0 0.25 0"/>
<feBlend mode="normal" in2="BackgroundImageFix" result="effect1_dropShadow_1316_398"/>
<feBlend mode="normal" in="SourceGraphic" in2="effect1_dropShadow_1316_398" result="shape"/>
</filter>
<filter id="filter4_d_1316_398" x="1492.53" y="310.844" width="336.723" height="342.927" filterUnits="userSpaceOnUse" color-interpolation-filters="sRGB">
<feFlood flood-opacity="0" result="BackgroundImageFix"/>
<feColorMatrix in="SourceAlpha" type="matrix" values="0 0 0 0 0 0 0 0 0 0 0 0 0 0 0 0 0 0 127 0" result="hardAlpha"/>
<feOffset dy="7.3448"/>
<feGaussianBlur stdDeviation="4.89653"/>
<feComposite in2="hardAlpha" operator="out"/>
<feColorMatrix type="matrix" values="0 0 0 0 0 0 0 0 0 0 0 0 0 0 0 0 0 0 0.25 0"/>
<feBlend mode="normal" in2="BackgroundImageFix" result="effect1_dropShadow_1316_398"/>
<feBlend mode="normal" in="SourceGraphic" in2="effect1_dropShadow_1316_398" result="shape"/>
</filter>
<linearGradient id="paint0_linear_1316_398" x1="155.567" y1="1385.56" x2="291.019" y2="1623.37" gradientUnits="userSpaceOnUse">
<stop stop-color="#7B96FF"/>
<stop offset="1" stop-color="#4A5A99"/>
</linearGradient>
<linearGradient id="paint1_linear_1316_398" x1="233.578" y1="1426.74" x2="214.243" y2="1532.61" gradientUnits="userSpaceOnUse">
<stop stop-color="#6079D8"/>
<stop offset="1" stop-color="#405BC3"/>
</linearGradient>
<linearGradient id="paint2_linear_1316_398" x1="261.514" y1="1156.45" x2="345.073" y2="1414.37" gradientUnits="userSpaceOnUse">
<stop stop-color="#6AB3FF"/>
<stop offset="1" stop-color="#7088E7"/>
</linearGradient>
<linearGradient id="paint3_linear_1316_398" x1="291.537" y1="1552.05" x2="190.085" y2="1664.57" gradientUnits="userSpaceOnUse">
<stop stop-color="#5264AA" stop-opacity="0"/>
<stop offset="0.240385" stop-color="#5669B3"/>
</linearGradient>
<linearGradient id="paint4_linear_1316_398" x1="1714.25" y1="619.049" x2="1923.93" y2="821.701" gradientUnits="userSpaceOnUse">
<stop offset="0.0144231" stop-color="#BAFFFA"/>
<stop offset="0.149038" stop-color="#80EDE5" stop-opacity="0.7"/>
<stop offset="0.812079" stop-color="#121831" stop-opacity="0.3"/>
</linearGradient>
<linearGradient id="paint5_linear_1316_398" x1="1719.01" y1="613.891" x2="1955.84" y2="843.237" gradientUnits="userSpaceOnUse">
<stop stop-color="#BAFFFA"/>
<stop offset="0.0769231" stop-color="#80EDE5" stop-opacity="0.7"/>
<stop offset="0.677885" stop-color="#0C101F" stop-opacity="0.5"/>
</linearGradient>
<linearGradient id="paint6_linear_1316_398" x1="1534.96" y1="304.32" x2="1670.65" y2="575.587" gradientUnits="userSpaceOnUse">
<stop stop-color="#A6F780"/>
<stop offset="1" stop-color="#218F8D"/>
</linearGradient>
</defs>
</svg>
