<svg width="524" height="136" viewBox="0 0 524 136" fill="none" xmlns="http://www.w3.org/2000/svg">
<path d="M0 135.376H135.376V4.74021e-05H0V135.376ZM176.207 125.9V31.1366H193.265L233.742 92.3268V31.1366H251.07V125.9H236.856L193.535 60.9194V125.9H176.207ZM300.125 127.254C291.958 127.254 285.144 125.629 279.684 122.38C274.268 119.086 270.207 114.754 267.5 109.384C264.792 103.969 263.438 98.0577 263.438 91.6499C263.438 85.4677 264.702 79.7593 267.229 74.5248C269.801 69.2902 273.546 65.0936 278.465 61.9348C283.384 58.7309 289.385 57.1289 296.47 57.1289C302.968 57.1289 308.383 58.4601 312.715 61.1225C317.047 63.7849 320.296 67.3498 322.462 71.8173C324.628 76.2396 325.712 81.1357 325.712 86.5056C325.712 87.9947 325.621 89.5064 325.441 91.0407C325.26 92.5298 324.989 94.0867 324.628 95.7112H280.902C281.534 99.9079 282.842 103.315 284.828 105.932C286.858 108.504 289.318 110.4 292.206 111.618C295.139 112.836 298.275 113.446 301.614 113.446C305.54 113.446 309.196 112.949 312.58 111.956C315.964 110.918 319.078 109.565 321.921 107.895L322.733 122.11C320.161 123.463 316.957 124.659 313.121 125.697C309.286 126.735 304.954 127.254 300.125 127.254ZM281.308 84.3396H308.654C308.654 82.3089 308.271 80.2783 307.503 78.2476C306.736 76.1719 305.45 74.4345 303.645 73.0356C301.885 71.6368 299.494 70.9373 296.47 70.9373C292.138 70.9373 288.731 72.2008 286.249 74.7278C283.767 77.2549 282.12 80.4588 281.308 84.3396ZM330.144 125.9L352.617 92.056L330.144 58.2119H350.18L362.499 77.8415L373.871 58.2119H393.906L371.434 92.056L393.906 125.9H373.871L361.551 106.271L350.18 125.9H330.144ZM431.163 127.254C424.124 127.254 418.506 125.855 414.309 123.057C410.112 120.259 407.089 116.424 405.239 111.55C403.389 106.632 402.464 100.991 402.464 94.6282V58.2119H419.25V94.6282C419.25 100.901 420.288 105.571 422.364 108.64C424.485 111.663 427.914 113.175 432.653 113.175C436.443 113.175 439.579 112.272 442.061 110.467C444.588 108.662 446.687 106.135 448.356 102.886L445.378 111.415V58.2119H462.165V125.9H446.461L445.649 114.122L449.304 118.861C447.679 120.936 445.107 122.854 441.587 124.614C438.113 126.374 434.638 127.254 431.163 127.254ZM497.059 127.254C492.592 127.254 488.553 126.825 484.943 125.968C481.378 125.11 477.79 123.869 474.18 122.245L475.669 107.895C479.144 109.926 482.551 111.573 485.89 112.836C489.275 114.055 492.817 114.664 496.517 114.664C499.857 114.664 502.406 114.122 504.166 113.039C505.926 111.956 506.806 110.242 506.806 107.895C506.806 106.135 506.332 104.691 505.385 103.563C504.482 102.435 503.106 101.42 501.256 100.517C499.405 99.6146 497.104 98.6444 494.351 97.6065C490.2 96.0722 486.658 94.4026 483.724 92.5975C480.836 90.7925 478.625 88.6265 477.091 86.0995C475.602 83.5273 474.857 80.3685 474.857 76.6231C474.857 72.7423 475.873 69.3128 477.903 66.3345C479.934 63.3562 482.822 61.0323 486.567 59.3626C490.313 57.693 494.758 56.8582 499.902 56.8582C504.189 56.8582 508.024 57.332 511.409 58.2796C514.838 59.2272 517.997 60.5133 520.885 62.1378L519.396 76.4877C516.373 74.3668 513.327 72.6295 510.258 71.2757C507.19 69.8769 503.828 69.1774 500.173 69.1774C497.285 69.1774 495.051 69.764 493.471 70.9373C491.892 72.1106 491.102 73.7802 491.102 75.9462C491.102 78.5635 492.208 80.5265 494.419 81.8351C496.63 83.1437 500.173 84.7457 505.046 86.641C508.205 87.8594 510.935 89.1229 513.236 90.4315C515.583 91.7402 517.523 93.1842 519.058 94.7636C520.592 96.343 521.72 98.148 522.442 100.179C523.209 102.164 523.593 104.466 523.593 107.083C523.593 111.37 522.555 115.025 520.479 118.048C518.448 121.027 515.448 123.305 511.477 124.885C507.551 126.464 502.745 127.254 497.059 127.254Z" fill="url(#paint0_linear_103_120)"/>
<defs>
<linearGradient id="paint0_linear_103_120" x1="0" y1="77.4001" x2="1117" y2="77.4001" gradientUnits="userSpaceOnUse">
<stop stop-color="#DEE4B0"/>
<stop offset="1" stop-color="#73E9FF"/>
</linearGradient>
</defs>
</svg>
