<svg width="134" height="134" viewBox="0 0 134 134" fill="none" xmlns="http://www.w3.org/2000/svg">
    <path d="M131 107V27.0001C131 13.7452 120.255 3.00008 107 3.00007L27 3.00002C13.7452 3.00001 3 13.7452 3 27V107C3 120.255 12.0721 131 25.327 131C27.5361 131 31 129.209 31 127V41C31 36.5817 34.5817 33 39 33H97C101.418 33 105 36.5817 105 41V93C105 97.4183 101.418 101 97 101H63C60.7909 101 59 102.791 59 105V127C59 129.209 60.7909 131 63 131H107C120.255 131 131 120.255 131 107Z" stroke="white" stroke-width="6"></path>
</svg>
