<svg width="533" height="130" viewBox="0 0 533 130" fill="none" xmlns="http://www.w3.org/2000/svg">
<path d="M46.7048 98.5541C37.6797 98.5541 29.6473 96.5234 22.6078 92.4621C15.5682 88.3557 10.0403 82.6248 6.02415 75.2693C2.00798 67.8688 -0.000105494 59.2047 -0.000105494 49.2771C-0.000105494 39.3494 2.00798 30.7079 6.02415 23.3525C10.0403 15.9519 15.5682 10.2209 22.6078 6.15966C29.6473 2.05323 37.6797 2.22113e-05 46.7048 2.22113e-05C55.7299 2.22113e-05 63.7622 2.05323 70.8018 6.15966C77.8414 10.2209 83.3692 15.9519 87.3854 23.3525C91.4016 30.7079 93.4096 39.3494 93.4096 49.2771C93.4096 59.2047 91.4016 67.8688 87.3854 75.2693C83.3692 82.6248 77.8414 88.3557 70.8018 92.4621C63.7622 96.5234 55.7299 98.5541 46.7048 98.5541ZM46.7048 81.7674C53.0223 81.7674 58.302 80.3685 62.5438 77.5707C66.7856 74.773 69.967 70.9373 72.0879 66.0637C74.2088 61.1451 75.2692 55.5495 75.2692 49.2771C75.2692 43.0046 74.2088 37.4316 72.0879 32.5581C69.967 27.6394 66.7856 23.7812 62.5438 20.9834C58.302 18.1856 53.0223 16.7867 46.7048 16.7867C40.3872 16.7867 35.1075 18.1856 30.8657 20.9834C26.6239 23.7812 23.4426 27.6394 21.3217 32.5581C19.2008 37.4316 18.1403 43.0046 18.1403 49.2771C18.1403 55.5495 19.2008 61.1451 21.3217 66.0637C23.4426 70.9373 26.6239 74.773 30.8657 77.5707C35.1075 80.3685 40.3872 81.7674 46.7048 81.7674ZM136.021 98.5541C132.186 98.5541 128.237 98.1705 124.176 97.4034C120.115 96.6814 116.347 95.8014 112.872 94.7635C109.397 93.6805 106.645 92.6426 104.614 91.6499L106.645 73.2387C109.804 74.773 113.098 76.1944 116.527 77.503C119.957 78.8117 123.477 79.8721 127.087 80.6844C130.697 81.4967 134.352 81.9028 138.052 81.9028C142.655 81.9028 146.355 81.0003 149.153 79.1953C151.951 77.3902 153.35 74.6376 153.35 70.9373C153.35 68.0944 152.56 65.8155 150.981 64.1008C149.401 62.3409 146.987 60.7841 143.738 59.4303C140.489 58.0314 136.337 56.452 131.283 54.6921C126.229 52.9322 121.694 50.9467 117.678 48.7356C113.662 46.4793 110.48 43.6364 108.134 40.2068C105.787 36.7773 104.614 32.4001 104.614 27.0753C104.614 21.8408 105.9 17.1928 108.472 13.1315C111.045 9.02512 114.88 5.82121 119.979 3.51981C125.124 1.17329 131.509 2.22113e-05 139.135 2.22113e-05C144.911 2.22113e-05 150.417 0.654343 155.651 1.96298C160.886 3.2265 165.353 4.60282 169.053 6.09196L167.293 23.8263C161.969 21.4346 156.96 19.6296 152.267 18.4112C147.619 17.1477 142.881 16.516 138.052 16.516C132.998 16.516 129.095 17.3508 126.342 19.0204C123.589 20.6901 122.213 23.1945 122.213 26.5338C122.213 29.1962 122.98 31.3397 124.514 32.9642C126.049 34.5887 128.237 35.9876 131.08 37.1609C133.923 38.289 137.33 39.4848 141.301 40.7483C148.16 42.9144 153.914 45.306 158.562 47.9233C163.255 50.4954 166.775 53.6317 169.121 57.332C171.513 60.9871 172.709 65.5222 172.709 70.9373C172.709 73.6448 172.28 76.6005 171.422 79.8044C170.565 82.9632 168.873 85.9641 166.346 88.807C163.819 91.6499 160.119 93.9964 155.245 95.8466C150.417 97.6516 144.009 98.5541 136.021 98.5541ZM240.813 96.6588L205.751 46.5695L240.813 1.89529H261.12L225.787 46.5695L261.12 96.6588H240.813ZM187.069 96.6588V1.89529H204.397V96.6588H187.069ZM271.944 96.6588V1.89529H289.272V96.6588H271.944ZM351.17 98.5541C342.144 98.5541 334.112 96.5234 327.073 92.4621C320.033 88.3557 314.505 82.6248 310.489 75.2693C306.473 67.8688 304.465 59.2047 304.465 49.2771C304.465 39.3494 306.473 30.7079 310.489 23.3525C314.505 15.9519 320.033 10.2209 327.073 6.15966C334.112 2.05323 342.144 2.22113e-05 351.17 2.22113e-05C360.195 2.22113e-05 368.227 2.05323 375.267 6.15966C382.306 10.2209 387.834 15.9519 391.85 23.3525C395.866 30.7079 397.874 39.3494 397.874 49.2771C397.874 59.2047 395.866 67.8688 391.85 75.2693C387.834 82.6248 382.306 88.3557 375.267 92.4621C368.227 96.5234 360.195 98.5541 351.17 98.5541ZM351.17 81.7674C357.487 81.7674 362.767 80.3685 367.009 77.5707C371.25 74.773 374.432 70.9373 376.553 66.0637C378.674 61.1451 379.734 55.5495 379.734 49.2771C379.734 43.0046 378.674 37.4316 376.553 32.5581C374.432 27.6394 371.25 23.7812 367.009 20.9834C362.767 18.1856 357.487 16.7867 351.17 16.7867C344.852 16.7867 339.572 18.1856 335.331 20.9834C331.089 23.7812 327.907 27.6394 325.786 32.5581C323.666 37.4316 322.605 43.0046 322.605 49.2771C322.605 55.5495 323.666 61.1451 325.786 66.0637C327.907 70.9373 331.089 74.773 335.331 77.5707C339.572 80.3685 344.852 81.7674 351.17 81.7674ZM409.507 129.42V28.9706H423.045L426.294 40.2068L421.285 38.4469C424.399 35.243 427.783 32.6934 431.438 30.7982C435.093 28.8578 439.561 27.8876 444.841 27.8876C451.474 27.8876 457.047 29.4895 461.56 32.6934C466.072 35.8973 469.479 40.1617 471.78 45.4865C474.127 50.8113 475.3 56.6325 475.3 62.9501C475.3 69.2676 474.127 75.0888 471.78 80.4136C469.479 85.7384 466.072 90.0028 461.56 93.2067C457.047 96.4106 451.474 98.0126 444.841 98.0126C439.561 98.0126 435.274 97.2906 431.98 95.8466C428.686 94.4025 425.346 92.1011 421.962 88.9424L426.294 85.5579V129.42H409.507ZM442.268 84.2042C447.277 84.2042 451.158 82.2412 453.911 78.3153C456.709 74.3443 458.107 69.2225 458.107 62.9501C458.107 56.6325 456.709 51.5108 453.911 47.5848C451.158 43.6589 447.277 41.696 442.268 41.696C438.388 41.696 435.206 42.5985 432.724 44.4035C430.242 46.2085 428.415 48.713 427.242 51.9169C426.068 55.0757 425.482 58.7534 425.482 62.9501C425.482 67.1467 426.068 70.847 427.242 74.0509C428.415 77.2097 430.242 79.6916 432.724 81.4967C435.206 83.3017 438.388 84.2042 442.268 84.2042ZM506.202 98.0126C501.735 98.0126 497.696 97.5839 494.086 96.7265C490.521 95.8691 486.933 94.6282 483.323 93.0036L484.813 78.6537C488.287 80.6844 491.694 82.3315 495.034 83.595C498.418 84.8134 501.96 85.4226 505.661 85.4226C509 85.4226 511.549 84.8811 513.309 83.798C515.069 82.715 515.949 81.0003 515.949 78.6537C515.949 76.8939 515.475 75.4498 514.528 74.3217C513.625 73.1936 512.249 72.1782 510.399 71.2757C508.549 70.3732 506.247 69.403 503.495 68.3651C499.343 66.8309 495.801 65.1612 492.867 63.3562C489.979 61.5512 487.768 59.3852 486.234 56.8581C484.745 54.286 484 51.1272 484 47.3818C484 43.501 485.016 40.0715 487.046 37.0932C489.077 34.1149 491.965 31.7909 495.71 30.1213C499.456 28.4516 503.901 27.6168 509.045 27.6168C513.332 27.6168 517.168 28.0906 520.552 29.0383C523.982 29.9859 527.14 31.272 530.028 32.8965L528.539 47.2464C525.516 45.1255 522.47 43.3882 519.401 42.0344C516.333 40.6355 512.971 39.9361 509.316 39.9361C506.428 39.9361 504.194 40.5227 502.615 41.696C501.035 42.8692 500.245 44.5389 500.245 46.7049C500.245 49.3222 501.351 51.2851 503.562 52.5938C505.773 53.9024 509.316 55.5044 514.189 57.3996C517.348 58.618 520.078 59.8815 522.38 61.1902C524.726 62.4988 526.666 63.9428 528.201 65.5222C529.735 67.1016 530.863 68.9066 531.585 70.9373C532.352 72.9228 532.736 75.2242 532.736 77.8415C532.736 82.1284 531.698 85.7836 529.622 88.807C527.592 91.7853 524.591 94.0641 520.62 95.6435C516.694 97.2229 511.888 98.0126 506.202 98.0126Z" fill="url(#paint0_linear_498_261)"/>
<defs>
<linearGradient id="paint0_linear_498_261" x1="-4.73828" y1="48.1588" x2="1112.26" y2="48.1588" gradientUnits="userSpaceOnUse">
<stop stop-color="#DEE4B0"/>
<stop offset="1" stop-color="#73E9FF"/>
</linearGradient>
</defs>
</svg>
