<svg width="1726" height="6295" viewBox="0 0 1726 6295" fill="none" xmlns="http://www.w3.org/2000/svg">
<g opacity="0.5" filter="url(#filter0_f_873_519)" style="mix-blend-mode:hard-light">
<path d="M1782.78 321.734C1868.34 366.151 2277.05 475.258 2140.72 773.108C2004.39 1070.96 1620.06 1255.59 1387.72 1763.2C1300.62 1508.94 1343.32 1441.32 1479.65 1143.46C1615.98 845.614 1697.22 277.317 1782.78 321.734Z" fill="url(#paint0_linear_873_519)" fill-opacity="0.25"/>
</g>
<g opacity="0.5" filter="url(#filter1_f_873_519)" style="mix-blend-mode:hard-light">
<path d="M98.4538 1275.78C177.968 556.062 818.084 -1380.68 775.677 -203.794C733.269 973.097 1315.33 373.591 1315.33 373.591C897.41 715.37 703.475 952.635 413.966 1439.57C74.2816 1880.83 55.582 1727.36 98.4538 1275.78Z" fill="url(#paint1_linear_873_519)" fill-opacity="0.25"/>
</g>
<g opacity="0.5" filter="url(#filter2_f_873_519)" style="mix-blend-mode:hard-light">
<path d="M399.635 1623.51C99.1931 1904.96 -377.319 3616.38 152.913 3202.51C683.146 2788.64 662.176 3296.04 662.176 3296.04C635.865 2961.22 517.81 2051.15 616.303 1735.99C671.178 1409.49 591.264 1450.63 399.635 1623.51Z" fill="url(#paint2_linear_873_519)" fill-opacity="0.25"/>
</g>
<g opacity="0.5" filter="url(#filter3_f_873_519)" style="mix-blend-mode:hard-light">
<ellipse cx="762.644" cy="522.203" rx="762.644" ry="522.203" transform="matrix(0.41619 -0.909278 0.887528 0.460753 47.1035 1891.18)" fill="url(#paint3_linear_873_519)" fill-opacity="0.25"/>
</g>
<g opacity="0.5" filter="url(#filter4_f_873_519)" style="mix-blend-mode:hard-light">
<path d="M1162.55 3360.95C1021.79 3294.84 942.564 2884.57 1078.32 2556.7C1214.08 2228.83 709.421 1659.08 1227.86 1599.6C1368.63 1665.71 1747 2662.32 1611.25 2990.19C1475.49 3318.06 1303.32 3427.05 1162.55 3360.95Z" fill="url(#paint4_linear_873_519)" fill-opacity="0.25"/>
</g>
<g opacity="0.5" filter="url(#filter5_f_873_519)" style="mix-blend-mode:hard-light">
<path d="M220.31 4537C302.757 4487.04 608.58 4194.78 792.009 4466.18C975.438 4737.57 933.145 5161.84 1245.75 5624.36C983.302 5566.45 947.77 5494.81 764.341 5223.41C580.912 4952.02 137.862 4586.96 220.31 4537Z" fill="url(#paint5_linear_873_519)" fill-opacity="0.25"/>
</g>
<g opacity="0.5" filter="url(#filter6_f_873_519)" style="mix-blend-mode:hard-light">
<path d="M158.709 6471.78C-414.55 6029.41 -1735.46 4475.09 -752.474 5123.63C230.512 5772.17 21.382 4963.18 21.382 4963.18C95.8175 5497.9 197.536 5786.97 462.747 6287.56C662.836 6807.23 522.045 6743.35 158.709 6471.78Z" fill="url(#paint6_linear_873_519)" fill-opacity="0.25"/>
</g>
<g opacity="0.5" style="mix-blend-mode:hard-light">
<path d="M345.374 6894C429.41 7297.01 1643.01 8594.38 1565.45 7926.23C1487.89 7258.09 1910.29 7540 1910.29 7540C1610.67 7388.26 772.053 7015.57 554.162 6767.49C303.88 6550.75 297.441 6640.4 345.374 6894Z" fill="url(#paint7_linear_873_519)" fill-opacity="0.25"/>
</g>
<g opacity="0.5" filter="url(#filter8_f_873_519)" style="mix-blend-mode:hard-light">
<ellipse cx="762.644" cy="522.203" rx="762.644" ry="522.203" transform="matrix(-0.559971 -0.828512 0.855252 -0.518212 657.537 6835.82)" fill="url(#paint8_linear_873_519)" fill-opacity="0.25"/>
</g>
<g opacity="0.5" filter="url(#filter9_f_873_519)" style="mix-blend-mode:hard-light">
<path d="M2273 7144.93C2143.3 7230.75 1635.75 6926.23 1304.63 6473.09C973.521 6019.95 120.956 6012.92 245.719 5410.34C375.413 5324.52 1677.95 5868.33 2009.07 6321.47C2340.18 6774.61 2402.69 7059.11 2273 7144.93Z" fill="url(#paint9_linear_873_519)" fill-opacity="0.25"/>
</g>
<defs>
<filter id="filter0_f_873_519" x="1051.33" y="28.1912" width="1408.06" height="2026.09" filterUnits="userSpaceOnUse" color-interpolation-filters="sRGB">
<feFlood flood-opacity="0" result="BackgroundImageFix"/>
<feBlend mode="normal" in="SourceGraphic" in2="BackgroundImageFix" result="shape"/>
<feGaussianBlur stdDeviation="145.542" result="effect1_foregroundBlur_873_519"/>
</filter>
<filter id="filter1_f_873_519" x="-218.205" y="-874.649" width="1833.53" height="2877.51" filterUnits="userSpaceOnUse" color-interpolation-filters="sRGB">
<feFlood flood-opacity="0" result="BackgroundImageFix"/>
<feBlend mode="normal" in="SourceGraphic" in2="BackgroundImageFix" result="shape"/>
<feGaussianBlur stdDeviation="150" result="effect1_foregroundBlur_873_519"/>
</filter>
<filter id="filter2_f_873_519" x="-385.656" y="1191.52" width="1347.95" height="2404.52" filterUnits="userSpaceOnUse" color-interpolation-filters="sRGB">
<feFlood flood-opacity="0" result="BackgroundImageFix"/>
<feBlend mode="normal" in="SourceGraphic" in2="BackgroundImageFix" result="shape"/>
<feGaussianBlur stdDeviation="150" result="effect1_foregroundBlur_873_519"/>
</filter>
<filter id="filter3_f_873_519" x="-33.8145" y="404.12" width="1723.58" height="2068.42" filterUnits="userSpaceOnUse" color-interpolation-filters="sRGB">
<feFlood flood-opacity="0" result="BackgroundImageFix"/>
<feBlend mode="normal" in="SourceGraphic" in2="BackgroundImageFix" result="shape"/>
<feGaussianBlur stdDeviation="150" result="effect1_foregroundBlur_873_519"/>
</filter>
<filter id="filter4_f_873_519" x="688.102" y="1299.6" width="1252.07" height="2379.78" filterUnits="userSpaceOnUse" color-interpolation-filters="sRGB">
<feFlood flood-opacity="0" result="BackgroundImageFix"/>
<feBlend mode="normal" in="SourceGraphic" in2="BackgroundImageFix" result="shape"/>
<feGaussianBlur stdDeviation="150" result="effect1_foregroundBlur_873_519"/>
</filter>
<filter id="filter5_f_873_519" x="-80.8928" y="4061.19" width="1617.73" height="1854.26" filterUnits="userSpaceOnUse" color-interpolation-filters="sRGB">
<feFlood flood-opacity="0" result="BackgroundImageFix"/>
<feBlend mode="normal" in="SourceGraphic" in2="BackgroundImageFix" result="shape"/>
<feGaussianBlur stdDeviation="145.542" result="effect1_foregroundBlur_873_519"/>
</filter>
<filter id="filter6_f_873_519" x="-1405.64" y="4663.18" width="2259.72" height="2314.94" filterUnits="userSpaceOnUse" color-interpolation-filters="sRGB">
<feFlood flood-opacity="0" result="BackgroundImageFix"/>
<feBlend mode="normal" in="SourceGraphic" in2="BackgroundImageFix" result="shape"/>
<feGaussianBlur stdDeviation="150" result="effect1_foregroundBlur_873_519"/>
</filter>
<filter id="filter8_f_873_519" x="-240.844" y="4945.8" width="1835.87" height="1975.09" filterUnits="userSpaceOnUse" color-interpolation-filters="sRGB">
<feFlood flood-opacity="0" result="BackgroundImageFix"/>
<feBlend mode="normal" in="SourceGraphic" in2="BackgroundImageFix" result="shape"/>
<feGaussianBlur stdDeviation="150" result="effect1_foregroundBlur_873_519"/>
</filter>
<filter id="filter9_f_873_519" x="-66.6484" y="5101.33" width="2702.61" height="2358.09" filterUnits="userSpaceOnUse" color-interpolation-filters="sRGB">
<feFlood flood-opacity="0" result="BackgroundImageFix"/>
<feBlend mode="normal" in="SourceGraphic" in2="BackgroundImageFix" result="shape"/>
<feGaussianBlur stdDeviation="150" result="effect1_foregroundBlur_873_519"/>
</filter>
<linearGradient id="paint0_linear_873_519" x1="1361.74" y1="1779.16" x2="1982.54" y2="718.636" gradientUnits="userSpaceOnUse">
<stop stop-color="#D5333F"/>
<stop offset="0.182692" stop-color="#FF910E"/>
<stop offset="0.495192" stop-color="#FAC714"/>
<stop offset="0.745192" stop-color="#96EB81"/>
<stop offset="0.990385" stop-color="#228F8D"/>
</linearGradient>
<linearGradient id="paint1_linear_873_519" x1="272.316" y1="1653.19" x2="1021.13" y2="210.784" gradientUnits="userSpaceOnUse">
<stop stop-color="#208E8D"/>
<stop offset="0.211538" stop-color="#5EC6FF"/>
<stop offset="0.475962" stop-color="#897EFF"/>
<stop offset="0.740385" stop-color="#8B23CB"/>
<stop offset="1" stop-color="#B62B7A"/>
</linearGradient>
<linearGradient id="paint2_linear_873_519" x1="653.001" y1="1589.99" x2="222.582" y2="2419.09" gradientUnits="userSpaceOnUse">
<stop stop-color="#208E8D"/>
<stop offset="0.211538" stop-color="#5EC6FF"/>
<stop offset="0.475962" stop-color="#897EFF"/>
<stop offset="0.740385" stop-color="#8B23CB"/>
<stop offset="1" stop-color="#B62B7A"/>
</linearGradient>
<linearGradient id="paint3_linear_873_519" x1="0" y1="522.203" x2="1525.29" y2="522.203" gradientUnits="userSpaceOnUse">
<stop stop-color="#DD342E"/>
<stop offset="0.168269" stop-color="#FF8E0E"/>
<stop offset="0.394231" stop-color="#FFDD6E"/>
<stop offset="0.735577" stop-color="#56B887"/>
<stop offset="1" stop-color="#62C2FF"/>
</linearGradient>
<linearGradient id="paint4_linear_873_519" x1="1671.35" y1="2199.66" x2="1125.68" y2="3361.6" gradientUnits="userSpaceOnUse">
<stop stop-color="#DD342E"/>
<stop offset="0.168269" stop-color="#FF8E0E"/>
<stop offset="0.394231" stop-color="#FFDD6E"/>
<stop offset="0.735577" stop-color="#56B887"/>
<stop offset="1" stop-color="#62C2FF"/>
</linearGradient>
<linearGradient id="paint5_linear_873_519" x1="1245.86" y1="5654.85" x2="663.192" y2="4572.92" gradientUnits="userSpaceOnUse">
<stop stop-color="#D5333F"/>
<stop offset="0.182692" stop-color="#FF910E"/>
<stop offset="0.495192" stop-color="#FAC714"/>
<stop offset="0.745192" stop-color="#96EB81"/>
<stop offset="0.990385" stop-color="#228F8D"/>
</linearGradient>
<linearGradient id="paint6_linear_873_519" x1="571.473" y1="6519.67" x2="-270.722" y2="5129.72" gradientUnits="userSpaceOnUse">
<stop stop-color="#208E8D"/>
<stop offset="0.211538" stop-color="#5EC6FF"/>
<stop offset="0.475962" stop-color="#897EFF"/>
<stop offset="0.740385" stop-color="#8B23CB"/>
<stop offset="1" stop-color="#B62B7A"/>
</linearGradient>
<linearGradient id="paint7_linear_873_519" x1="448.57" y1="6660.18" x2="932.664" y2="7459.13" gradientUnits="userSpaceOnUse">
<stop stop-color="#208E8D"/>
<stop offset="0.211538" stop-color="#5EC6FF"/>
<stop offset="0.475962" stop-color="#897EFF"/>
<stop offset="0.740385" stop-color="#8B23CB"/>
<stop offset="1" stop-color="#B62B7A"/>
</linearGradient>
<linearGradient id="paint8_linear_873_519" x1="0" y1="522.203" x2="1525.29" y2="522.203" gradientUnits="userSpaceOnUse">
<stop stop-color="#DD342E"/>
<stop offset="0.168269" stop-color="#FF8E0E"/>
<stop offset="0.394231" stop-color="#FFDD6E"/>
<stop offset="0.735577" stop-color="#56B887"/>
<stop offset="1" stop-color="#62C2FF"/>
</linearGradient>
<linearGradient id="paint9_linear_873_519" x1="1110.7" y1="5510.49" x2="2231" y2="7203.56" gradientUnits="userSpaceOnUse">
<stop stop-color="#DD342E"/>
<stop offset="0.168269" stop-color="#FF8E0E"/>
<stop offset="0.394231" stop-color="#FFDD6E"/>
<stop offset="0.735577" stop-color="#56B887"/>
<stop offset="1" stop-color="#62C2FF"/>
</linearGradient>
</defs>
</svg>
