<?xml version="1.0" encoding="UTF-8" standalone="no"?>
<!DOCTYPE svg PUBLIC "-//W3C//DTD SVG 1.1//EN" "http://www.w3.org/Graphics/SVG/1.1/DTD/svg11.dtd">
<svg width="100%" height="100%" viewBox="0 0 2762 2910" version="1.1" xmlns="http://www.w3.org/2000/svg" xmlns:xlink="http://www.w3.org/1999/xlink" xml:space="preserve" xmlns:serif="http://www.serif.com/" style="fill-rule:evenodd;clip-rule:evenodd;stroke-linejoin:round;stroke-miterlimit:2;">
    <g transform="matrix(1,0,0,1,533.583086,-185.940945)">
        <path d="M-125.113,410.038C414.84,-17.12 1286.71,184.371 1824.37,861.392L1827.52,865.37C2362.03,1541.92 2361.24,2435.94 1825.74,2866.54L1822.58,2869.06C1282.87,3299.52 408.643,3098.57 -130.072,2420.22C-668.786,1741.88 -667.984,843.012 -128.278,412.552L-125.113,410.038ZM1394.39,1204.34C968.084,667.538 430.089,670.722 213.768,843.255C34.727,986.055 -80.963,1370.09 126.188,1802.57C76.919,1612.15 111.938,1426.8 237.761,1312.53L240.181,1310.36C446.528,1126.16 815.616,1200.81 1066.41,1478.15C1317.21,1755.49 1355.12,2130.9 1151.95,2318.6L1149.54,2320.8C1012.38,2445.36 801.903,2454.01 602.227,2363.56C953.759,2603.92 1313.29,2571.75 1480.53,2438.36C1696.85,2265.83 1820.7,1741.14 1394.39,1204.34ZM576.196,1515.34C495.285,1499.17 455.153,1520.36 438.98,1535.04C422.807,1549.73 397.822,1587.67 405.939,1669.95C414.05,1752.17 455.842,1857.14 542.98,1953.5C630.117,2049.85 730.255,2101.83 811.109,2117.99C892.021,2134.17 932.153,2112.97 948.326,2098.29C964.499,2083.6 989.483,2045.66 981.366,1963.38C973.254,1881.16 931.463,1776.19 844.326,1679.84C757.189,1583.48 657.05,1531.5 576.196,1515.34Z" style="fill:url(#_Linear1);fill-rule:nonzero;"/>
    </g>
    <defs>
        <linearGradient id="_Linear1" x1="0" y1="0" x2="1" y2="0" gradientUnits="userSpaceOnUse" gradientTransform="matrix(-2026.0338,1451.864,-1451.864,-2026.0338,2007.27,689.286)"><stop offset="0" style="stop-color:rgb(112,80,194);stop-opacity:0.3"/><stop offset="0.18" style="stop-color:rgb(112,80,194);stop-opacity:0.3"/><stop offset="0.5" style="stop-color:rgb(102,116,232);stop-opacity:0.3"/><stop offset="0.86" style="stop-color:rgb(27,45,41);stop-opacity:0.3"/><stop offset="1" style="stop-color:rgb(27,45,41);stop-opacity:0.3"/></linearGradient>
    </defs>
</svg>
