<svg width="1728" height="612" viewBox="0 0 1728 612" fill="none" xmlns="http://www.w3.org/2000/svg">
<path d="M1055.29 56.2257C1425.89 -75.9151 1700.59 57.046 1860.75 127.454C1864.6 129.145 1866.41 133.482 1864.99 137.44L1820.85 261.285C1819.73 264.407 1816.81 266.52 1813.5 266.597L10.8843 308.672C7.15002 308.759 3.85246 306.251 2.93999 302.629L-26.4887 185.81C-27.904 180.192 -22.8452 175.016 -17.1348 175.994C550.995 273.273 720.835 175.481 1055.29 56.2257Z" fill="#211452"/>
<path d="M782.899 555.606C410.645 688.136 135.128 553.659 -24.7784 483.58C-27.6921 482.303 -29.5 479.458 -29.5 476.277V283.666C-29.5 279.269 -25.9521 275.696 -21.5557 275.666L1880.98 262.424C1886.27 262.387 1890.14 267.4 1888.76 272.506L1824.9 509.414C1823.82 513.408 1819.72 515.896 1815.65 515.188C1243.74 415.939 1118.42 436.153 782.899 555.606Z" fill="#211452"/>
</svg>
