<svg width="1728" height="527" viewBox="0 0 1728 527" fill="none" xmlns="http://www.w3.org/2000/svg">
<path d="M650.653 73.0282C324.281 -93.0535 5.86499 70.9715 -155.336 107.724C-159.02 108.564 -161.535 111.791 -161.535 115.569V319.835C-161.535 324.505 -157.552 328.182 -152.898 327.81L769.838 254.05C770.255 254.017 770.674 254.016 771.092 254.048L1727.78 327.91C1732.05 328.24 1735.83 325.143 1736.34 320.887L1755.25 163.255C1755.86 158.221 1751.53 153.915 1746.48 154.344C1175.85 202.818 956.653 228.743 650.653 73.0282Z" fill="#22114F"/>
<path d="M998.195 453.472C1324.18 619.357 1642.23 455.917 1803.61 418.907C1807.55 418.005 1810.12 414.389 1809.78 410.366L1798.51 279.751C1798.17 275.855 1795.07 272.773 1791.17 272.464L-69.4428 124.686C-74.0961 124.316 -78.0762 127.993 -78.0762 132.661V374.793C-78.0762 379.478 -73.8496 383.142 -69.1823 382.736C500.104 333.177 514.969 207.571 998.195 453.472Z" fill="#22114F"/>
</svg>
