<?xml version="1.0" encoding="UTF-8" standalone="no"?>
<!DOCTYPE svg PUBLIC "-//W3C//DTD SVG 1.1//EN" "http://www.w3.org/Graphics/SVG/1.1/DTD/svg11.dtd">
<svg width="100%" height="100%" viewBox="0 0 1593 4683" version="1.1" xmlns="http://www.w3.org/2000/svg" xmlns:xlink="http://www.w3.org/1999/xlink" xml:space="preserve" xmlns:serif="http://www.serif.com/" style="fill-rule:evenodd;clip-rule:evenodd;">
    <g>
        <path d="M4.552,128.512L796.5,128.512M2.501,262.031L796.5,262.031M2.501,395.551L796.5,395.551M2.501,514.461L796.5,514.461M4.552,647.98L796.5,647.98M115.44,6.964L115.44,781.5M227.185,6.964L227.185,781.5M344.397,6.964L344.397,781.5M454.091,4.935L454.091,781.5M567.885,4.935L567.885,781.5M683.047,6.964L683.047,781.5M2.5,2.5L796.5,2.5L796.5,781.5L2.501,781.5L2.5,2.5Z" style="fill:none;fill-rule:nonzero;stroke:rgb(152,148,149);stroke-opacity:0.1;stroke-width:5px;"/>
        <path d="M796.5,2.5L1590.5,2.5L1590.5,781.5L796.501,781.5M798.552,128.512L1590.5,128.512M796.501,262.031L1590.5,262.031M796.501,395.551L1590.5,395.551M796.501,514.461L1590.5,514.461M798.552,647.98L1590.5,647.98M909.44,6.964L909.44,781.5M1021.18,6.964L1021.18,781.5M1138.4,6.964L1138.4,781.5M1248.09,4.935L1248.09,781.5M1361.89,4.935L1361.89,781.5M1477.05,6.964L1477.05,781.5" style="fill:none;fill-rule:nonzero;stroke:rgb(152,148,149);stroke-opacity:0.1;stroke-width:5px;"/>
        <path d="M2.5,781.5L2.501,1560.5M796.5,781.5L796.5,1560.5M4.552,907.512L796.5,907.512M2.501,1041.03L796.5,1041.03M2.501,1174.55L796.5,1174.55M2.501,1293.46L796.5,1293.46M4.552,1426.98L796.5,1426.98M115.44,785.964L115.44,1560.5M227.185,785.964L227.185,1560.5M344.397,785.964L344.397,1560.5M454.091,783.935L454.091,1560.5M567.885,783.935L567.885,1560.5M683.047,785.964L683.047,1560.5" style="fill:none;fill-rule:nonzero;stroke:rgb(152,148,149);stroke-opacity:0.1;stroke-width:5px;"/>
        <path d="M1590.5,781.5L1590.5,1560.5M798.55,907.512L1590.5,907.512M796.5,1041.03L1590.5,1041.03M796.5,1174.55L1590.5,1174.55M796.5,1293.46L1590.5,1293.46M798.55,1426.98L1590.5,1426.98M909.439,785.964L909.439,1560.5M1021.18,785.964L1021.18,1560.5M1138.4,785.964L1138.4,1560.5M1248.09,783.935L1248.09,1560.5M1361.88,783.935L1361.88,1560.5M1477.05,785.964L1477.05,1560.5" style="fill:none;fill-rule:nonzero;stroke:rgb(152,148,149);stroke-opacity:0.1;stroke-width:5px;"/>
        <path d="M2.501,2339.5L2.5,1560.5L796.5,1560.5L796.5,2339.5M4.552,1686.51L796.5,1686.51M2.501,1820.03L796.5,1820.03M2.501,1953.55L796.5,1953.55M2.501,2072.46L796.5,2072.46M4.552,2205.98L796.5,2205.98M115.44,1564.96L115.44,2339.5M227.185,1564.96L227.185,2339.5M344.397,1564.96L344.397,2339.5M454.091,1562.94L454.091,2339.5M567.885,1562.94L567.885,2339.5M683.047,1564.96L683.047,2339.5" style="fill:none;fill-rule:nonzero;stroke:rgb(152,148,149);stroke-opacity:0.1;stroke-width:5px;"/>
        <path d="M796.5,1560.5L1590.5,1560.5L1590.5,2339.5M798.552,1686.51L1590.5,1686.51M796.501,1820.03L1590.5,1820.03M796.501,1953.55L1590.5,1953.55M796.501,2072.46L1590.5,2072.46M798.552,2205.98L1590.5,2205.98M909.44,1564.96L909.44,2339.5M1021.18,1564.96L1021.18,2339.5M1138.4,1564.96L1138.4,2339.5M1248.09,1562.94L1248.09,2339.5M1361.89,1562.94L1361.89,2339.5M1477.05,1564.96L1477.05,2339.5" style="fill:none;fill-rule:nonzero;stroke:rgb(152,148,149);stroke-opacity:0.1;stroke-width:5px;"/>
        <path d="M2.501,3121.5L2.5,2342.5L796.5,2342.5L796.5,3121.5M4.552,2468.51L796.5,2468.51M2.501,2602.03L796.5,2602.03M2.501,2735.55L796.5,2735.55M2.501,2854.46L796.5,2854.46M4.552,2987.98L796.5,2987.98M115.44,2346.96L115.44,3121.5M227.185,2346.96L227.185,3121.5M344.397,2346.96L344.397,3121.5M454.091,2344.94L454.091,3121.5M567.885,2344.94L567.885,3121.5M683.047,2346.96L683.047,3121.5" style="fill:none;fill-rule:nonzero;stroke:rgb(152,148,149);stroke-opacity:0.1;stroke-width:5px;"/>
        <path d="M796.5,2342.5L1590.5,2342.5L1590.5,3121.5M798.552,2468.51L1590.5,2468.51M796.501,2602.03L1590.5,2602.03M796.501,2735.55L1590.5,2735.55M796.501,2854.46L1590.5,2854.46M798.552,2987.98L1590.5,2987.98M909.44,2346.96L909.44,3121.5M1021.18,2346.96L1021.18,3121.5M1138.4,2346.96L1138.4,3121.5M1248.09,2344.94L1248.09,3121.5M1361.89,2344.94L1361.89,3121.5M1477.05,2346.96L1477.05,3121.5" style="fill:none;fill-rule:nonzero;stroke:rgb(152,148,149);stroke-opacity:0.1;stroke-width:5px;"/>
        <path d="M2.501,3900.5L2.5,3121.5L796.5,3121.5L796.5,3900.5M4.552,3247.51L796.5,3247.51M2.501,3381.03L796.5,3381.03M2.501,3514.55L796.5,3514.55M2.501,3633.46L796.5,3633.46M4.552,3766.98L796.5,3766.98M115.44,3125.96L115.44,3900.5M227.185,3125.96L227.185,3900.5M344.397,3125.96L344.397,3900.5M454.091,3123.94L454.091,3900.5M567.885,3123.94L567.885,3900.5M683.047,3125.96L683.047,3900.5" style="fill:none;fill-rule:nonzero;stroke:rgb(152,148,149);stroke-opacity:0.1;stroke-width:5px;"/>
        <path d="M796.5,3121.5L1590.5,3121.5L1590.5,3900.5M798.552,3247.51L1590.5,3247.51M796.501,3381.03L1590.5,3381.03M796.501,3514.55L1590.5,3514.55M796.501,3633.46L1590.5,3633.46M798.552,3766.98L1590.5,3766.98M909.44,3125.96L909.44,3900.5M1021.18,3125.96L1021.18,3900.5M1138.4,3125.96L1138.4,3900.5M1248.09,3123.94L1248.09,3900.5M1361.89,3123.94L1361.89,3900.5M1477.05,3125.96L1477.05,3900.5" style="fill:none;fill-rule:nonzero;stroke:rgb(152,148,149);stroke-opacity:0.1;stroke-width:5px;"/>
        <path d="M2.501,4682.5L2.5,3903.5L796.5,3903.5L796.5,4682.5M4.552,4029.51L796.5,4029.51M2.501,4163.03L796.5,4163.03M2.501,4296.55L796.5,4296.55M2.501,4415.46L796.5,4415.46M4.552,4548.98L796.5,4548.98M115.44,3907.96L115.44,4682.5M227.185,3907.96L227.185,4682.5M344.397,3907.96L344.397,4682.5M454.091,3905.94L454.091,4682.5M567.885,3905.94L567.885,4682.5M683.047,3907.96L683.047,4682.5" style="fill:none;fill-rule:nonzero;stroke:rgb(152,148,149);stroke-opacity:0.1;stroke-width:5px;"/>
        <path d="M796.5,3903.5L1590.5,3903.5L1590.5,4682.5M798.552,4029.51L1590.5,4029.51M796.501,4163.03L1590.5,4163.03M796.501,4296.55L1590.5,4296.55M796.501,4415.46L1590.5,4415.46M798.552,4548.98L1590.5,4548.98M909.44,3907.96L909.44,4682.5M1021.18,3907.96L1021.18,4682.5M1138.4,3907.96L1138.4,4682.5M1248.09,3905.94L1248.09,4682.5M1361.89,3905.94L1361.89,4682.5M1477.05,3907.96L1477.05,4682.5" style="fill:none;fill-rule:nonzero;stroke:rgb(152,148,149);stroke-opacity:0.1;stroke-width:5px;"/>
    </g>
    <g transform="matrix(1,0,0,1,0,-293)">
        <path d="M1213.32,3199.36C1214.61,3258.43 1184.25,3260.18 1096.36,3235.28C1008.46,3210.39 1133.37,3068.14 1274.56,3029.07C1268.43,3061.8 1266.68,3079.8 1239.7,3116.95C1220.99,3145.5 1213.46,3162.79 1213.32,3199.36Z" style="fill:rgb(8,66,161);fill-rule:nonzero;"/>
        <path d="M1222.95,3222.87L1157.3,3145.91L1139.17,3123.12L1192.85,3077.62L1230.27,3129.24L1269.31,3179.99L1222.95,3222.87Z" style="fill:rgb(89,108,184);fill-rule:nonzero;"/>
        <path d="M1270.94,3181.74C1287.21,3221.12 1258.74,3250 1222.95,3222.87L1200.17,3196.62L1248.98,3152.87L1270.94,3181.74Z" style="fill:rgb(50,94,193);fill-rule:nonzero;"/>
        <path d="M973.338,3090.89C954.718,3088.45 940.567,3082.8 909.187,3065.69L932.098,3022.92C962.194,3032.62 976.223,3034.07 994.722,3027.51L1006.94,3041.25C988.725,3059.36 981.341,3070.23 973.338,3090.89Z" style="fill:rgb(123,150,255);fill-rule:nonzero;"/>
        <path d="M991.94,3109.15C993.72,3108.17 995.956,3108.74 997.045,3110.46L1027.16,3157.92C1028.32,3159.74 1027.75,3162.16 1025.91,3163.28L966.306,3199.33L904.619,3240.24C902.823,3241.43 900.399,3240.92 899.244,3239.1L869.125,3191.63C868.035,3189.91 868.47,3187.64 870.117,3186.45L929.173,3143.71L991.94,3109.15Z" style="fill:rgb(102,125,212);fill-rule:nonzero;"/>
        <path d="M865.27,3166.23C866.083,3166.17 866.887,3166.49 867.448,3167.08C877.385,3177.53 882.396,3184.64 889.521,3198C889.807,3198.54 890.259,3198.97 890.807,3199.23L930.887,3218.06C932.891,3219 933.059,3221.79 931.182,3222.96L880.523,3254.7C879.353,3255.43 877.817,3255.19 876.916,3254.15C854.502,3228.14 844.07,3213.83 830.755,3191.21C830.237,3190.33 830.241,3189.22 830.771,3188.35C840.325,3172.61 845.542,3167.49 865.27,3166.23Z" style="fill:rgb(50,94,193);fill-rule:nonzero;"/>
        <g transform="matrix(0.538905,0.842367,-0.842367,0.538905,3081.738002,708.129022)">
            <rect x="894.035" y="3169.05" width="65.523" height="30.548" style="fill:rgb(50,94,193);"/>
        </g>
        <g>
            <ellipse cx="1060.72" cy="3137.83" rx="126.774" ry="112.264" style="fill:url(#_Linear1);"/>
        </g>
        <path d="M1034.27,3157.05L1057.67,3066.49L1067,3068.87L1037.38,3172.18L1034.27,3157.05Z" style="fill:url(#_Linear2);fill-rule:nonzero;"/>
        <g>
            <path d="M1340.5,2911.39C1343.55,2983.94 1288.57,3100.15 1157.97,3089.33C1035.51,3079.18 929.504,3026.7 935.734,2902.98C941.08,2796.83 1050.29,2709 1137.35,2715.88C1248.7,2715.88 1335.77,2799.22 1340.5,2911.39Z" style="fill:white;fill-rule:nonzero;"/>
        </g>
        <path d="M1295.36,2935.94C1297.78,2988.9 1262.05,3067.39 1158.66,3059.49C1061.7,3052.08 964.325,2997.83 969.258,2907.51C973.49,2830.02 1038.75,2773.1 1121.24,2780.26C1218.99,2780.26 1291.62,2854.06 1295.36,2935.94Z" style="fill:rgb(9,19,44);fill-rule:nonzero;"/>
        <path d="M1278.38,2931.52C1278.38,2996.47 1214.37,3050.47 1160,3042.26C1028.65,3022.4 985.879,2979.67 985.879,2914.72C985.879,2849.76 1040.1,2789.47 1126.4,2797.11C1204.01,2797.11 1278.38,2866.57 1278.38,2931.52Z" style="fill:url(#_Linear3);fill-rule:nonzero;"/>
        <path d="M1049.86,2889.62C1049.6,2906.13 1048.74,2915.81 1069.39,2926.57C1070.96,2927.39 1072.65,2927.97 1074.4,2928.27C1092.41,2931.39 1101.81,2926.04 1112.48,2909.48" style="fill:none;fill-rule:nonzero;stroke:black;stroke-width:3.5px;stroke-linecap:round;"/>
        <path d="M1160.95,2922.43C1160.69,2938.93 1159.83,2948.62 1180.48,2959.38C1182.05,2960.19 1183.75,2960.78 1185.49,2961.08C1203.5,2964.2 1212.9,2958.84 1223.57,2942.28" style="fill:none;fill-rule:nonzero;stroke:black;stroke-width:3.5px;stroke-linecap:round;"/>
        <path d="M1094.85,2970.44C1094.85,2970.44 1120.26,2993.6 1145.64,2985.96" style="fill:none;fill-rule:nonzero;stroke:black;stroke-width:3.15px;stroke-linecap:round;"/>
        <path d="M1092.51,3174.79C1093.96,3173.37 1096.27,3173.33 1097.78,3174.69L1139.53,3212.33C1141.13,3213.78 1141.23,3216.25 1139.75,3217.82L1092.01,3268.55L1043.57,3324.51C1042.16,3326.14 1039.68,3326.29 1038.08,3324.85L996.33,3287.21C994.819,3285.84 994.63,3283.54 995.897,3281.95L1041.32,3224.93L1092.51,3174.79Z" style="fill:url(#_Linear4);fill-rule:nonzero;"/>
        <path d="M985.799,3263.77C986.568,3263.5 987.427,3263.59 988.126,3264.01C1000.5,3271.41 1007.24,3276.92 1017.69,3287.87C1018.11,3288.31 1018.66,3288.61 1019.25,3288.71L1062.92,3296.1C1065.1,3296.47 1066.01,3299.11 1064.52,3300.74L1024.23,3344.9C1023.3,3345.92 1021.76,3346.11 1020.61,3345.34C992.037,3326.3 978.151,3315.32 959.252,3297.09C958.516,3296.38 958.224,3295.32 958.501,3294.34C963.48,3276.61 967.132,3270.28 985.799,3263.77Z" style="fill:rgb(50,94,193);fill-rule:nonzero;"/>
        <g transform="matrix(0.745166,0.666878,-0.666878,0.745166,2431.673619,154.048994)">
            <rect x="1014.27" y="3258.77" width="65.523" height="30.548" style="fill:rgb(50,94,193);"/>
        </g>
        <path d="M861.072,3023.69C856.49,3008.41 861.836,2984.74 894.675,2985.5C915.598,2988.94 916.416,2998.41 916.822,3016.05L931.654,3023.69L909.185,3065.69C909.185,3065.69 864.412,3036.99 861.072,3023.69Z" style="fill:rgb(50,94,193);fill-rule:nonzero;"/>
        <g transform="matrix(0.847996,-0.530002,0.530002,0.847996,-1338.831256,995.881555)">
            <ellipse cx="1066.79" cy="2832.04" rx="33.816" ry="18.698" style="fill:rgb(144,189,240);"/>
        </g>
    </g>
    <g transform="matrix(1,0,0,1,0,-293)">
        <path d="M169.493,811.968C157.598,796.949 168.295,774.832 187.454,774.832L337.117,774.832L259.219,925.258L169.493,811.968Z" style="fill:url(#_Linear5);fill-rule:nonzero;"/>
        <path d="M241.973,1089.72C223.895,1096.07 206.476,1078.74 212.724,1060.63L261.532,919.148L378.331,1041.84L241.973,1089.72Z" style="fill:url(#_Linear6);fill-rule:nonzero;"/>
        <path d="M654.308,840.505C672.65,845.728 676.955,869.764 661.565,881.028L539.088,970.669L512.22,800.043L654.308,840.505Z" style="fill:url(#_Linear7);fill-rule:nonzero;"/>
        <path d="M425.665,652.841C436.635,637.928 459.846,641.511 465.81,659.037L514.296,801.538L334.46,776.825L425.665,652.841Z" style="fill:url(#_Linear8);fill-rule:nonzero;"/>
        <path d="M537.182,1115.04C536.799,1133.58 515.699,1144.01 500.739,1133.05L377.593,1042.87L540.262,965.734L537.182,1115.04Z" style="fill:url(#_Linear9);fill-rule:nonzero;"/>
        <path d="M378.357,1043.63L259.59,919.908L539.719,966.552L378.357,1043.63Z" style="fill:url(#_Linear10);fill-rule:nonzero;"/>
        <path d="M334.793,775.647L516.292,801.897L539.656,968.465L259.983,922.203L334.793,775.647Z" style="fill:url(#_Linear11);fill-rule:nonzero;"/>
        <g transform="matrix(0.998008,0.063089,-0.063089,0.998008,55.885049,-20.379699)">
            <ellipse cx="350.654" cy="874.747" rx="24.438" ry="30.548" style="fill:rgb(8,29,15);"/>
        </g>
        <g transform="matrix(0.998008,0.063089,-0.063089,0.998008,57.326994,-27.775936)">
            <ellipse cx="468.494" cy="893.882" rx="24.438" ry="30.548" style="fill:rgb(8,29,15);"/>
        </g>
        <path d="M372.859,922.327C372.859,922.327 393.611,961.964 429.505,932.179" style="fill:none;fill-rule:nonzero;stroke:black;stroke-width:3.15px;stroke-linecap:round;"/>
    </g>
    <g transform="matrix(1,0,0,1,0,-293)">
        <path d="M1298.18,1553.06L1261.62,1593.59L1251.33,1567.11L1276.72,1542.42L1298.18,1553.06Z" style="fill:url(#_Linear12);fill-rule:nonzero;"/>
        <path d="M1276.02,1542.81C1282.39,1554.17 1297.18,1557.98 1309.06,1551.32C1320.95,1544.66 1325.42,1530.05 1319.06,1518.7C1312.69,1507.34 1297.9,1503.54 1286.02,1510.2C1274.14,1516.86 1269.66,1531.46 1276.02,1542.81Z" style="fill:url(#_Linear13);fill-rule:nonzero;"/>
        <path d="M1232.7,1715.28L971.672,1761.08C967.626,1761.79 963.784,1759.05 963.146,1754.99L921.021,1487.05C920.757,1485.37 921.272,1483.66 922.419,1482.41L945.042,1457.66L987.033,1741.45C987.553,1744.96 990.871,1747.35 994.365,1746.73L1266.73,1698.22L1243.58,1711.37C1240.2,1713.28 1236.52,1714.6 1232.7,1715.28Z" style="fill:rgb(65,20,99);fill-rule:nonzero;"/>
        <path d="M901.228,1642.48L950.868,1660.04L947.05,1631.79L914.211,1622.62L901.228,1642.48Z" style="fill:url(#_Linear14);fill-rule:nonzero;"/>
        <path d="M914.975,1622.62C914.975,1635.7 904.375,1646.3 891.3,1646.3C878.225,1646.3 867.625,1635.7 867.625,1622.62C867.625,1609.55 878.225,1598.95 891.3,1598.95C904.375,1598.95 914.975,1609.55 914.975,1622.62Z" style="fill:url(#_Linear15);fill-rule:nonzero;"/>
        <path d="M1077.28,1848.67C1068.23,1856.52 1063.54,1862.29 1037.17,1839.38C1008.49,1814.46 1012.36,1811.25 1023.05,1801.32C1032.98,1791.4 1047.49,1789.87 1060.34,1809.73C1075.14,1821.3 1091.02,1837.98 1077.28,1848.67Z" style="fill:rgb(65,20,99);fill-rule:nonzero;"/>
        <path d="M1033.09,1795C1044.8,1794.45 1050.1,1779.93 1055.72,1740.23L1082.55,1740.23C1078.68,1771.35 1073.82,1800.56 1059.31,1812.02L1033.09,1795Z" style="fill:rgb(65,20,99);fill-rule:nonzero;"/>
        <path d="M1243.14,1795.5C1241.13,1807.3 1241.18,1814.74 1206.25,1813.79C1168.28,1812.75 1169.23,1807.81 1171.19,1793.35C1172.55,1779.38 1182.79,1768.98 1205.33,1776.17C1224.11,1775.71 1246.97,1778.51 1243.14,1795.5Z" style="fill:rgb(65,20,99);fill-rule:nonzero;"/>
        <path d="M1174.92,1782.1C1183.63,1774.24 1178.49,1759.65 1157.62,1725.42L1178.35,1708.38C1195.13,1734.88 1209.92,1760.53 1205.99,1778.59L1174.92,1782.1Z" style="fill:rgb(65,20,99);fill-rule:nonzero;"/>
        <path d="M938.601,1456.63C938.156,1453.82 940.038,1451.17 942.84,1450.65L1229.49,1398.3C1232.39,1397.77 1235.16,1399.73 1235.62,1402.65L1281.46,1696.21C1281.91,1699.07 1279.95,1701.76 1277.09,1702.2L989.843,1747.21C986.983,1747.65 984.301,1745.7 983.849,1742.84L938.601,1456.63Z" style="fill:url(#_Linear16);fill-rule:nonzero;"/>
        <g transform="matrix(0.962011,-0.273012,0.273012,0.962011,-385.467104,350.150709)">
            <ellipse cx="1065.45" cy="1560.16" rx="21.877" ry="26.512" style="fill:rgb(8,29,15);"/>
        </g>
        <g transform="matrix(0.962011,-0.273012,0.273012,0.962011,-377.920254,375.046348)">
            <ellipse cx="1158.68" cy="1545.49" rx="21.981" ry="27.104" style="fill:rgb(8,29,15);"/>
        </g>
        <path d="M1093,1603.29C1093,1603.29 1122.82,1633.4 1143.76,1594.72" style="fill:none;fill-rule:nonzero;stroke:black;stroke-width:3.15px;stroke-linecap:round;"/>
        <path d="M1307.8,1640.52L1252.53,1296.14C1256.1,1292.15 1258.73,1291.5 1264.75,1293.85L1322.03,1639.04C1317.16,1643.82 1314.2,1645.03 1307.8,1640.52Z" style="fill:rgb(45,63,66);fill-rule:nonzero;"/>
        <path d="M1478.77,1267.5L1263.68,1302.68L1281.73,1424.82L1496.33,1394.27L1487.55,1330.89L1478.77,1267.5Z" style="fill:url(#_Linear17);fill-rule:nonzero;"/>
    </g>
    <g transform="matrix(1,0,0,1,0,-293)">
        <path d="M418.944,2437.34L339.416,2386.74C267.76,2486.87 198.329,2503.85 84.113,2547.02L195.463,2677.36C303.613,2634.84 351.811,2580.49 418.944,2437.34Z" style="fill:url(#_Linear18);fill-rule:nonzero;"/>
        <path d="M123.341,2592.84C217.509,2537.74 271.908,2517.33 355.867,2401.26L394.9,2426.12C334.771,2530.46 289.391,2580.6 172.431,2650.04L123.341,2592.84Z" style="fill:url(#_Linear19);fill-rule:nonzero;"/>
        <g>
            <path d="M624.408,2023.59C626.387,2022.92 628.524,2024.1 628.97,2026.1C644.365,2094.93 642.809,2127.41 637.82,2177.79C637.576,2180.26 634.849,2181.71 632.63,2180.56L474.427,2098.25C472.07,2097.03 471.943,2093.76 474.205,2092.32C518.017,2064.49 558.22,2045.82 624.408,2023.59Z" style="fill:rgb(35,88,62);fill-rule:nonzero;"/>
        </g>
        <path d="M578.726,2355.7C580.747,2354.18 583.653,2355.28 584.178,2357.75C597.712,2421.35 592.957,2458.67 571.238,2521.86C570.617,2523.67 568.649,2524.66 566.841,2524.05C531.743,2512.25 513.225,2501.52 487.453,2474.98C486.459,2473.96 486.196,2472.4 486.787,2471.1C510.779,2418.35 530.831,2391.52 578.726,2355.7Z" style="fill:rgb(35,88,62);fill-rule:nonzero;"/>
        <path d="M345.214,2221.58C345.57,2219.32 343.524,2217.34 341.174,2217.69C272.157,2227.96 243.001,2261.16 192.932,2307.72C191.567,2308.99 191.487,2311.11 192.776,2312.48C222.297,2343.8 236.683,2343.6 275.668,2359.76C277.116,2360.36 278.828,2359.99 279.833,2358.84C318.652,2314.41 335.27,2284.79 345.214,2221.58Z" style="fill:rgb(35,88,62);fill-rule:nonzero;"/>
        <g transform="matrix(0.871595,0.490227,-0.509762,0.860315,336.523,2358.4)">
            <path d="M132.813,3.149L132.813,34.101C132.813,35.839 131.403,37.25 129.665,37.25L3.148,37.25C1.41,37.25 0,35.839 0,34.101L0,3.149C0,1.411 1.41,0 3.148,0L129.665,0C131.403,0 132.813,1.411 132.813,3.149Z" style="fill:rgb(53,103,75);"/>
        </g>
        <g>
            <path d="M497.491,2077.59L640.282,2156.91C627.614,2301.92 592.853,2364.46 517.471,2466.93L277.089,2334.26C328.817,2218.01 367.491,2157.34 497.491,2077.59Z" style="fill:rgb(56,136,97);fill-rule:nonzero;"/>
        </g>
        <g>
            <path d="M549.416,2112.04C553.442,2109.94 558.311,2112.5 558.697,2116.93L585.788,2427.8C586.223,2432.79 580.759,2436.27 576.307,2433.84L271.893,2267.79C267.513,2265.41 267.626,2259.19 272.091,2256.85L549.416,2112.04Z" style="fill:url(#_Linear20);fill-rule:nonzero;"/>
        </g>
        <g transform="matrix(0.915325,0.402716,-0.416511,0.909131,416.781,2216.49)">
            <ellipse cx="18.243" cy="21.944" rx="18.243" ry="21.944" style="fill:rgb(8,29,15);"/>
        </g>
        <g transform="matrix(0.915325,0.402716,-0.416511,0.909131,494.469,2259.83)">
            <ellipse cx="18.243" cy="21.944" rx="18.243" ry="21.944" style="fill:rgb(8,29,15);"/>
        </g>
        <path d="M429.332,2280.31C429.332,2280.31 437.379,2315.49 466.511,2301.58" style="fill:none;fill-rule:nonzero;stroke:black;stroke-width:3.15px;stroke-linecap:round;"/>
    </g>
    <defs>
        <linearGradient id="_Linear1" x1="0" y1="0" x2="1" y2="0" gradientUnits="userSpaceOnUse" gradientTransform="matrix(135.453,237.81,-237.81,135.453,981.067,3025.56)"><stop offset="0" style="stop-color:rgb(123,150,255);stop-opacity:1"/><stop offset="1" style="stop-color:rgb(74,90,153);stop-opacity:1"/></linearGradient>
        <linearGradient id="_Linear2" x1="0" y1="0" x2="1" y2="0" gradientUnits="userSpaceOnUse" gradientTransform="matrix(-19.34,105.87,-105.87,-19.34,1059.08,3066.74)"><stop offset="0" style="stop-color:rgb(96,121,216);stop-opacity:1"/><stop offset="1" style="stop-color:rgb(64,91,195);stop-opacity:1"/></linearGradient>
        <linearGradient id="_Linear3" x1="0" y1="0" x2="1" y2="0" gradientUnits="userSpaceOnUse" gradientTransform="matrix(83.56,257.92,-257.92,83.56,1087.02,2796.45)"><stop offset="0" style="stop-color:rgb(106,179,255);stop-opacity:1"/><stop offset="1" style="stop-color:rgb(112,136,231);stop-opacity:1"/></linearGradient>
        <linearGradient id="_Linear4" x1="0" y1="0" x2="1" y2="0" gradientUnits="userSpaceOnUse" gradientTransform="matrix(-101.45,112.52,-112.52,-101.45,1117.04,3192.05)"><stop offset="0" style="stop-color:rgb(82,100,170);stop-opacity:0"/><stop offset="0.24" style="stop-color:rgb(86,105,179);stop-opacity:1"/><stop offset="1" style="stop-color:rgb(86,105,179);stop-opacity:1"/></linearGradient>
        <linearGradient id="_Linear5" x1="0" y1="0" x2="1" y2="0" gradientUnits="userSpaceOnUse" gradientTransform="matrix(178.706,222.241,-222.241,178.706,332.514,890.939)"><stop offset="0" style="stop-color:rgb(250,203,21);stop-opacity:1"/><stop offset="1" style="stop-color:rgb(255,147,15);stop-opacity:1"/></linearGradient>
        <linearGradient id="_Linear6" x1="0" y1="0" x2="1" y2="0" gradientUnits="userSpaceOnUse" gradientTransform="matrix(178.706,222.241,-222.241,178.706,332.514,890.939)"><stop offset="0" style="stop-color:rgb(250,203,21);stop-opacity:1"/><stop offset="1" style="stop-color:rgb(255,147,15);stop-opacity:1"/></linearGradient>
        <linearGradient id="_Linear7" x1="0" y1="0" x2="1" y2="0" gradientUnits="userSpaceOnUse" gradientTransform="matrix(178.706,222.241,-222.241,178.706,332.514,890.939)"><stop offset="0" style="stop-color:rgb(250,203,21);stop-opacity:1"/><stop offset="1" style="stop-color:rgb(255,147,15);stop-opacity:1"/></linearGradient>
        <linearGradient id="_Linear8" x1="0" y1="0" x2="1" y2="0" gradientUnits="userSpaceOnUse" gradientTransform="matrix(178.706,222.241,-222.241,178.706,332.514,890.939)"><stop offset="0" style="stop-color:rgb(250,203,21);stop-opacity:1"/><stop offset="1" style="stop-color:rgb(255,147,15);stop-opacity:1"/></linearGradient>
        <linearGradient id="_Linear9" x1="0" y1="0" x2="1" y2="0" gradientUnits="userSpaceOnUse" gradientTransform="matrix(178.706,222.241,-222.241,178.706,332.514,890.939)"><stop offset="0" style="stop-color:rgb(250,203,21);stop-opacity:1"/><stop offset="1" style="stop-color:rgb(255,147,15);stop-opacity:1"/></linearGradient>
        <linearGradient id="_Linear10" x1="0" y1="0" x2="1" y2="0" gradientUnits="userSpaceOnUse" gradientTransform="matrix(178.706,222.241,-222.241,178.706,332.514,890.939)"><stop offset="0" style="stop-color:rgb(250,203,21);stop-opacity:1"/><stop offset="1" style="stop-color:rgb(255,147,15);stop-opacity:1"/></linearGradient>
        <linearGradient id="_Linear11" x1="0" y1="0" x2="1" y2="0" gradientUnits="userSpaceOnUse" gradientTransform="matrix(178.706,222.241,-222.241,178.706,332.514,890.939)"><stop offset="0" style="stop-color:rgb(250,203,21);stop-opacity:1"/><stop offset="1" style="stop-color:rgb(255,147,15);stop-opacity:1"/></linearGradient>
        <linearGradient id="_Linear12" x1="0" y1="0" x2="1" y2="0" gradientUnits="userSpaceOnUse" gradientTransform="matrix(-56.81,75.13,-75.13,-56.81,1309.04,1513.85)"><stop offset="0" style="stop-color:rgb(167,41,149);stop-opacity:1"/><stop offset="1" style="stop-color:rgb(65,20,99);stop-opacity:1"/></linearGradient>
        <linearGradient id="_Linear13" x1="0" y1="0" x2="1" y2="0" gradientUnits="userSpaceOnUse" gradientTransform="matrix(-56.81,75.13,-75.13,-56.81,1309.04,1513.85)"><stop offset="0" style="stop-color:rgb(167,41,149);stop-opacity:1"/><stop offset="1" style="stop-color:rgb(65,20,99);stop-opacity:1"/></linearGradient>
        <linearGradient id="_Linear14" x1="0" y1="0" x2="1" y2="0" gradientUnits="userSpaceOnUse" gradientTransform="matrix(84.007,35.13,-35.13,84.007,873.735,1613.46)"><stop offset="0" style="stop-color:rgb(167,41,149);stop-opacity:1"/><stop offset="1" style="stop-color:rgb(65,20,99);stop-opacity:1"/></linearGradient>
        <linearGradient id="_Linear15" x1="0" y1="0" x2="1" y2="0" gradientUnits="userSpaceOnUse" gradientTransform="matrix(84.007,35.13,-35.13,84.007,873.735,1613.46)"><stop offset="0" style="stop-color:rgb(167,41,149);stop-opacity:1"/><stop offset="1" style="stop-color:rgb(65,20,99);stop-opacity:1"/></linearGradient>
        <linearGradient id="_Linear16" x1="0" y1="0" x2="1" y2="0" gradientUnits="userSpaceOnUse" gradientTransform="matrix(339.713,244.6,-244.6,339.713,942.707,1452.45)"><stop offset="0" style="stop-color:rgb(138,35,206);stop-opacity:1"/><stop offset="1" style="stop-color:rgb(223,52,43);stop-opacity:1"/></linearGradient>
        <linearGradient id="_Linear17" x1="0" y1="0" x2="1" y2="0" gradientUnits="userSpaceOnUse" gradientTransform="matrix(189.39,127.54,-127.54,189.39,1285.52,1323.86)"><stop offset="0" style="stop-color:rgb(255,142,14);stop-opacity:1"/><stop offset="1" style="stop-color:rgb(198,166,112);stop-opacity:1"/></linearGradient>
        <linearGradient id="_Linear18" x1="0" y1="0" x2="1" y2="0" gradientUnits="userSpaceOnUse" gradientTransform="matrix(-209.678,202.65,-202.65,-209.678,373.889,2417.05)"><stop offset="0" style="stop-color:rgb(186,255,250);stop-opacity:1"/><stop offset="0.01" style="stop-color:rgb(186,255,250);stop-opacity:1"/><stop offset="0.15" style="stop-color:rgb(128,237,229);stop-opacity:0.7"/><stop offset="0.81" style="stop-color:rgb(18,24,49);stop-opacity:0.3"/><stop offset="1" style="stop-color:rgb(18,24,49);stop-opacity:0.3"/></linearGradient>
        <linearGradient id="_Linear19" x1="0" y1="0" x2="1" y2="0" gradientUnits="userSpaceOnUse" gradientTransform="matrix(-236.834,229.35,-229.35,-236.834,369.134,2411.89)"><stop offset="0" style="stop-color:rgb(186,255,250);stop-opacity:1"/><stop offset="0.08" style="stop-color:rgb(128,237,229);stop-opacity:0.7"/><stop offset="0.68" style="stop-color:rgb(12,16,31);stop-opacity:0.5"/><stop offset="1" style="stop-color:rgb(12,16,31);stop-opacity:0.5"/></linearGradient>
        <linearGradient id="_Linear20" x1="0" y1="0" x2="1" y2="0" gradientUnits="userSpaceOnUse" gradientTransform="matrix(-135.696,271.27,-271.27,-135.696,553.181,2102.32)"><stop offset="0" style="stop-color:rgb(166,247,128);stop-opacity:1"/><stop offset="1" style="stop-color:rgb(33,143,141);stop-opacity:1"/></linearGradient>
    </defs>
</svg>
