<svg width="1593" height="2591" viewBox="0 0 1593 2591" fill="none" xmlns="http://www.w3.org/2000/svg">
<path opacity="0.1" d="M4.55179 128.512H796.5M2.50143 262.031H796.5M2.50143 395.551H796.5M2.50143 514.461H796.5M4.55179 647.98H796.5M115.44 6.96418V781.5M227.185 6.96418V781.5M344.397 6.96418V781.5M454.091 4.93501V781.5M567.885 4.93501V781.5M683.047 6.96418V781.5M2.5 2.5H796.5V781.5H2.50143L2.5 2.5Z" stroke="#989495" stroke-width="5"/>
<path opacity="0.1" d="M796.5 2.5H1590.5V781.5H796.501M798.552 128.512H1590.5M796.501 262.031H1590.5M796.501 395.551H1590.5M796.501 514.461H1590.5M798.552 647.98H1590.5M909.44 6.96418V781.5M1021.18 6.96418V781.5M1138.4 6.96418V781.5M1248.09 4.93501V781.5M1361.89 4.93501V781.5M1477.05 6.96418V781.5" stroke="#989495" stroke-width="5"/>
<path opacity="0.1" d="M2.5 781.5L2.50143 1560.5M796.5 781.5V1560.5M4.55179 907.512H796.5M2.50143 1041.03H796.5M2.50143 1174.55H796.5M2.50143 1293.46H796.5M4.55179 1426.98H796.5M115.44 785.964V1560.5M227.185 785.964V1560.5M344.397 785.964V1560.5M454.091 783.935V1560.5M567.885 783.935V1560.5M683.047 785.964V1560.5" stroke="#989495" stroke-width="5"/>
<path opacity="0.1" d="M1590.5 781.5V1560.5M798.55 907.512H1590.5M796.5 1041.03H1590.5M796.5 1174.55H1590.5M796.5 1293.46H1590.5M798.55 1426.98H1590.5M909.439 785.964V1560.5M1021.18 785.964V1560.5M1138.4 785.964V1560.5M1248.09 783.935V1560.5M1361.88 783.935V1560.5M1477.05 785.964V1560.5" stroke="#989495" stroke-width="5"/>
<path opacity="0.1" d="M2.50143 2339.5L2.5 1560.5H796.5V2339.5M4.55179 1686.51H796.5M2.50143 1820.03H796.5M2.50143 1953.55H796.5M2.50143 2072.46H796.5M4.55179 2205.98H796.5M115.44 1564.96V2339.5M227.185 1564.96V2339.5M344.397 1564.96V2339.5M454.091 1562.94V2339.5M567.885 1562.94V2339.5M683.047 1564.96V2339.5" stroke="#989495" stroke-width="5"/>
<path opacity="0.1" d="M796.5 1560.5H1590.5V2339.5M798.552 1686.51H1590.5M796.501 1820.03H1590.5M796.501 1953.55H1590.5M796.501 2072.46H1590.5M798.552 2205.98H1590.5M909.44 1564.96V2339.5M1021.18 1564.96V2339.5M1138.4 1564.96V2339.5M1248.09 1562.94V2339.5M1361.89 1562.94V2339.5M1477.05 1564.96V2339.5" stroke="#989495" stroke-width="5"/>
<path d="M169.493 627.968C157.598 612.949 168.295 590.832 187.454 590.832L337.117 590.832L259.219 741.258L169.493 627.968Z" fill="url(#paint0_linear_1308_397)"/>
<path d="M241.973 905.718C223.895 912.065 206.476 894.741 212.724 876.629L261.532 735.148L378.331 857.844L241.973 905.718Z" fill="url(#paint1_linear_1308_397)"/>
<path d="M654.308 656.505C672.65 661.728 676.955 685.764 661.565 697.028L539.088 786.669L512.22 616.043L654.308 656.505Z" fill="url(#paint2_linear_1308_397)"/>
<path d="M425.665 468.841C436.635 453.928 459.846 457.511 465.81 475.037L514.296 617.538L334.46 592.825L425.665 468.841Z" fill="url(#paint3_linear_1308_397)"/>
<path d="M537.182 931.041C536.799 949.58 515.699 960.009 500.739 949.053L377.593 858.868L540.262 781.734L537.182 931.041Z" fill="url(#paint4_linear_1308_397)"/>
<path d="M378.357 859.632L259.59 735.908L539.719 782.552L378.357 859.632Z" fill="url(#paint5_linear_1308_397)"/>
<path d="M334.793 591.647L516.292 617.897L539.656 784.465L259.983 738.203L334.793 591.647Z" fill="url(#paint6_linear_1308_397)"/>
<ellipse cx="350.654" cy="690.747" rx="24.4385" ry="30.5481" transform="rotate(3.61711 350.654 690.747)" fill="#081D0F"/>
<ellipse cx="468.494" cy="709.882" rx="24.4385" ry="30.5481" transform="rotate(3.61711 468.494 709.882)" fill="#081D0F"/>
<path d="M372.859 738.327C372.859 738.327 393.611 777.964 429.505 748.179" stroke="black" stroke-width="3.14777" stroke-linecap="round"/>
<path d="M1298.18 1369.06L1261.62 1409.59L1251.33 1383.11L1276.72 1358.42L1298.18 1369.06Z" fill="url(#paint7_linear_1308_397)"/>
<path d="M1276.02 1358.81C1282.39 1370.17 1297.18 1373.98 1309.06 1367.32C1320.95 1360.66 1325.42 1346.05 1319.06 1334.7C1312.69 1323.34 1297.9 1319.54 1286.02 1326.2C1274.14 1332.86 1269.66 1347.46 1276.02 1358.81Z" fill="url(#paint8_linear_1308_397)"/>
<path d="M1232.69 1531.28L971.668 1577.08C967.622 1577.79 963.78 1575.05 963.143 1570.99L921.017 1303.05C920.753 1301.37 921.268 1299.66 922.415 1298.41L945.038 1273.66L987.03 1557.45C987.549 1560.96 990.867 1563.35 994.361 1562.73L1266.73 1514.22L1243.58 1527.37C1240.2 1529.28 1236.52 1530.6 1232.69 1531.28Z" fill="#411463"/>
<path d="M901.224 1458.48L950.865 1476.04L947.046 1447.79L914.207 1438.62L901.224 1458.48Z" fill="url(#paint9_linear_1308_397)"/>
<path d="M914.971 1438.62C914.971 1451.7 904.371 1462.3 891.296 1462.3C878.221 1462.3 867.621 1451.7 867.621 1438.62C867.621 1425.55 878.221 1414.95 891.296 1414.95C904.371 1414.95 914.971 1425.55 914.971 1438.62Z" fill="url(#paint10_linear_1308_397)"/>
<path d="M1077.27 1664.67C1068.22 1672.52 1063.54 1678.29 1037.16 1655.38C1008.48 1630.46 1012.36 1627.25 1023.05 1617.32C1032.98 1607.4 1047.49 1605.87 1060.33 1625.73C1075.14 1637.3 1091.02 1653.98 1077.27 1664.67Z" fill="#411463"/>
<path d="M1033.08 1611C1044.8 1610.45 1050.1 1595.93 1055.71 1556.23L1082.55 1556.23C1078.68 1587.35 1073.82 1616.56 1059.31 1628.02L1033.08 1611Z" fill="#411463"/>
<path d="M1243.14 1611.5C1241.13 1623.3 1241.18 1630.74 1206.25 1629.79C1168.28 1628.75 1169.23 1623.81 1171.19 1609.35C1172.55 1595.38 1182.79 1584.98 1205.33 1592.17C1224.11 1591.71 1246.97 1594.51 1243.14 1611.5Z" fill="#411463"/>
<path d="M1174.92 1598.1C1183.63 1590.24 1178.49 1575.65 1157.62 1541.42L1178.35 1524.38C1195.13 1550.88 1209.92 1576.53 1205.99 1594.59L1174.92 1598.1Z" fill="#411463"/>
<path d="M938.597 1272.63C938.152 1269.82 940.034 1267.17 942.836 1266.65L1229.49 1214.3C1232.39 1213.77 1235.16 1215.73 1235.61 1218.65L1281.46 1512.21C1281.91 1515.07 1279.95 1517.76 1277.09 1518.2L989.839 1563.21C986.979 1563.65 984.297 1561.7 983.845 1558.84L938.597 1272.63Z" fill="url(#paint11_linear_1308_397)"/>
<ellipse cx="1065.45" cy="1376.16" rx="21.8765" ry="26.512" transform="rotate(-15.8436 1065.45 1376.16)" fill="#081D0F"/>
<ellipse cx="1158.68" cy="1361.49" rx="21.9814" ry="27.1039" transform="rotate(-15.8436 1158.68 1361.49)" fill="#081D0F"/>
<path d="M1093 1419.29C1093 1419.29 1122.82 1449.4 1143.75 1410.72" stroke="black" stroke-width="3.14777" stroke-linecap="round"/>
<path d="M1307.8 1456.52L1252.53 1112.14C1256.1 1108.15 1258.72 1107.5 1264.75 1109.85L1322.02 1455.04C1317.16 1459.82 1314.19 1461.03 1307.8 1456.52Z" fill="#2D3F42"/>
<path d="M1478.76 1083.5L1263.67 1118.68L1281.73 1240.82L1496.33 1210.27L1487.55 1146.89L1478.76 1083.5Z" fill="url(#paint12_linear_1308_397)"/>
<path d="M418.94 2253.34L339.412 2202.74C267.756 2302.87 198.325 2319.85 84.1095 2363.02L195.459 2493.36C303.609 2450.84 351.807 2396.49 418.94 2253.34Z" fill="url(#paint13_linear_1308_397)"/>
<path d="M123.338 2408.84C217.505 2353.74 271.905 2333.33 355.863 2217.26L394.897 2242.12C334.767 2346.46 289.387 2396.6 172.427 2466.04L123.338 2408.84Z" fill="url(#paint14_linear_1308_397)"/>
<g filter="url(#filter0_d_1308_397)">
<path d="M624.4 1839.59C626.379 1838.92 628.517 1840.1 628.963 1842.1C644.357 1910.93 642.801 1943.41 637.812 1993.79C637.568 1996.26 634.841 1997.71 632.622 1996.56L474.419 1914.25C472.062 1913.03 471.935 1909.76 474.197 1908.32C518.009 1880.49 558.212 1861.82 624.4 1839.59Z" fill="#23583E"/>
</g>
<path d="M578.722 2171.7C580.743 2170.19 583.649 2171.28 584.174 2173.75C597.709 2237.35 592.953 2274.67 571.234 2337.86C570.614 2339.67 568.645 2340.66 566.837 2340.05C531.739 2328.25 513.221 2317.52 487.449 2290.98C486.455 2289.96 486.192 2288.4 486.783 2287.11C510.775 2234.35 530.827 2207.52 578.722 2171.7Z" fill="#23583E"/>
<path d="M345.21 2037.58C345.566 2035.32 343.52 2033.34 341.17 2033.69C272.153 2043.96 242.997 2077.16 192.928 2123.72C191.563 2124.99 191.483 2127.11 192.772 2128.48C222.293 2159.8 236.68 2159.6 275.664 2175.76C277.112 2176.36 278.824 2175.99 279.829 2174.84C318.648 2130.41 335.266 2100.79 345.21 2037.58Z" fill="#23583E"/>
<rect width="132.813" height="37.2498" rx="3.14777" transform="matrix(0.871595 0.490227 -0.509762 0.860315 336.52 2174.4)" fill="#35674B"/>
<g filter="url(#filter1_d_1308_397)">
<path d="M497.487 1893.59L640.278 1972.91C627.61 2117.92 592.849 2180.46 517.468 2282.93L277.085 2150.26C328.813 2034.01 367.487 1973.34 497.487 1893.59Z" fill="#388861"/>
</g>
<g filter="url(#filter2_d_1308_397)">
<path d="M549.412 1928.04C553.439 1925.94 558.307 1928.5 558.693 1932.93L585.784 2243.8C586.219 2248.79 580.755 2252.27 576.304 2249.84L271.889 2083.79C267.509 2081.41 267.622 2075.19 272.088 2072.85L549.412 1928.04Z" fill="url(#paint15_linear_1308_397)"/>
</g>
<ellipse cx="18.2428" cy="21.9442" rx="18.2428" ry="21.9442" transform="matrix(0.915325 0.402716 -0.416511 0.909131 416.773 2032.49)" fill="#081D0F"/>
<ellipse cx="18.2428" cy="21.9442" rx="18.2428" ry="21.9442" transform="matrix(0.915325 0.402716 -0.416511 0.909131 494.461 2075.83)" fill="#081D0F"/>
<path d="M429.328 2096.32C429.328 2096.32 437.375 2131.49 466.508 2117.58" stroke="black" stroke-width="3.14777" stroke-linecap="round"/>
<defs>
<filter id="filter0_d_1308_397" x="446.343" y="1839.4" width="221.174" height="288.715" filterUnits="userSpaceOnUse" color-interpolation-filters="sRGB">
<feFlood flood-opacity="0" result="BackgroundImageFix"/>
<feColorMatrix in="SourceAlpha" type="matrix" values="0 0 0 0 0 0 0 0 0 0 0 0 0 0 0 0 0 0 127 0" result="hardAlpha"/>
<feOffset dy="104.926"/>
<feGaussianBlur stdDeviation="13.1157"/>
<feComposite in2="hardAlpha" operator="out"/>
<feColorMatrix type="matrix" values="0 0 0 0 0 0 0 0 0 0 0 0 0 0 0 0 0 0 0.25 0"/>
<feBlend mode="normal" in2="BackgroundImageFix" result="effect1_dropShadow_1308_397"/>
<feBlend mode="normal" in="SourceGraphic" in2="effect1_dropShadow_1308_397" result="shape"/>
</filter>
<filter id="filter1_d_1308_397" x="267.293" y="1893.59" width="373.684" height="404.734" filterUnits="userSpaceOnUse" color-interpolation-filters="sRGB">
<feFlood flood-opacity="0" result="BackgroundImageFix"/>
<feColorMatrix in="SourceAlpha" type="matrix" values="0 0 0 0 0 0 0 0 0 0 0 0 0 0 0 0 0 0 127 0" result="hardAlpha"/>
<feOffset dx="-4.54678" dy="10.1428"/>
<feGaussianBlur stdDeviation="2.62314"/>
<feComposite in2="hardAlpha" operator="out"/>
<feColorMatrix type="matrix" values="0 0 0 0 0 0 0 0 0 0 0 0 0 0 0 0 0 0 0.25 0"/>
<feBlend mode="normal" in2="BackgroundImageFix" result="effect1_dropShadow_1308_397"/>
<feBlend mode="normal" in="SourceGraphic" in2="effect1_dropShadow_1308_397" result="shape"/>
</filter>
<filter id="filter2_d_1308_397" x="258.879" y="1924.85" width="336.723" height="342.927" filterUnits="userSpaceOnUse" color-interpolation-filters="sRGB">
<feFlood flood-opacity="0" result="BackgroundImageFix"/>
<feColorMatrix in="SourceAlpha" type="matrix" values="0 0 0 0 0 0 0 0 0 0 0 0 0 0 0 0 0 0 127 0" result="hardAlpha"/>
<feOffset dy="7.3448"/>
<feGaussianBlur stdDeviation="4.89653"/>
<feComposite in2="hardAlpha" operator="out"/>
<feColorMatrix type="matrix" values="0 0 0 0 0 0 0 0 0 0 0 0 0 0 0 0 0 0 0.25 0"/>
<feBlend mode="normal" in2="BackgroundImageFix" result="effect1_dropShadow_1308_397"/>
<feBlend mode="normal" in="SourceGraphic" in2="effect1_dropShadow_1308_397" result="shape"/>
</filter>
<linearGradient id="paint0_linear_1308_397" x1="332.514" y1="706.939" x2="511.22" y2="929.176" gradientUnits="userSpaceOnUse">
<stop stop-color="#FACB15"/>
<stop offset="1" stop-color="#FF930F"/>
</linearGradient>
<linearGradient id="paint1_linear_1308_397" x1="332.514" y1="706.939" x2="511.22" y2="929.176" gradientUnits="userSpaceOnUse">
<stop stop-color="#FACB15"/>
<stop offset="1" stop-color="#FF930F"/>
</linearGradient>
<linearGradient id="paint2_linear_1308_397" x1="332.514" y1="706.939" x2="511.22" y2="929.176" gradientUnits="userSpaceOnUse">
<stop stop-color="#FACB15"/>
<stop offset="1" stop-color="#FF930F"/>
</linearGradient>
<linearGradient id="paint3_linear_1308_397" x1="332.514" y1="706.939" x2="511.22" y2="929.176" gradientUnits="userSpaceOnUse">
<stop stop-color="#FACB15"/>
<stop offset="1" stop-color="#FF930F"/>
</linearGradient>
<linearGradient id="paint4_linear_1308_397" x1="332.514" y1="706.939" x2="511.22" y2="929.176" gradientUnits="userSpaceOnUse">
<stop stop-color="#FACB15"/>
<stop offset="1" stop-color="#FF930F"/>
</linearGradient>
<linearGradient id="paint5_linear_1308_397" x1="332.514" y1="706.939" x2="511.22" y2="929.176" gradientUnits="userSpaceOnUse">
<stop stop-color="#FACB15"/>
<stop offset="1" stop-color="#FF930F"/>
</linearGradient>
<linearGradient id="paint6_linear_1308_397" x1="332.514" y1="706.939" x2="511.22" y2="929.176" gradientUnits="userSpaceOnUse">
<stop stop-color="#FACB15"/>
<stop offset="1" stop-color="#FF930F"/>
</linearGradient>
<linearGradient id="paint7_linear_1308_397" x1="1309.04" y1="1329.85" x2="1252.23" y2="1404.98" gradientUnits="userSpaceOnUse">
<stop stop-color="#A72995"/>
<stop offset="1" stop-color="#411463"/>
</linearGradient>
<linearGradient id="paint8_linear_1308_397" x1="1309.04" y1="1329.85" x2="1252.23" y2="1404.98" gradientUnits="userSpaceOnUse">
<stop stop-color="#A72995"/>
<stop offset="1" stop-color="#411463"/>
</linearGradient>
<linearGradient id="paint9_linear_1308_397" x1="873.731" y1="1429.46" x2="957.738" y2="1464.59" gradientUnits="userSpaceOnUse">
<stop stop-color="#A72995"/>
<stop offset="1" stop-color="#411463"/>
</linearGradient>
<linearGradient id="paint10_linear_1308_397" x1="873.731" y1="1429.46" x2="957.738" y2="1464.59" gradientUnits="userSpaceOnUse">
<stop stop-color="#A72995"/>
<stop offset="1" stop-color="#411463"/>
</linearGradient>
<linearGradient id="paint11_linear_1308_397" x1="942.703" y1="1268.45" x2="1282.41" y2="1513.05" gradientUnits="userSpaceOnUse">
<stop stop-color="#8A23CE"/>
<stop offset="1" stop-color="#DF342B"/>
</linearGradient>
<linearGradient id="paint12_linear_1308_397" x1="1285.51" y1="1139.86" x2="1474.91" y2="1267.4" gradientUnits="userSpaceOnUse">
<stop stop-color="#FF8E0E"/>
<stop offset="1" stop-color="#C6A670"/>
</linearGradient>
<linearGradient id="paint13_linear_1308_397" x1="373.885" y1="2233.05" x2="164.207" y2="2435.7" gradientUnits="userSpaceOnUse">
<stop offset="0.0144231" stop-color="#BAFFFA"/>
<stop offset="0.149038" stop-color="#80EDE5" stop-opacity="0.7"/>
<stop offset="0.812079" stop-color="#121831" stop-opacity="0.3"/>
</linearGradient>
<linearGradient id="paint14_linear_1308_397" x1="369.13" y1="2227.89" x2="132.296" y2="2457.24" gradientUnits="userSpaceOnUse">
<stop stop-color="#BAFFFA"/>
<stop offset="0.0769231" stop-color="#80EDE5" stop-opacity="0.7"/>
<stop offset="0.677885" stop-color="#0C101F" stop-opacity="0.5"/>
</linearGradient>
<linearGradient id="paint15_linear_1308_397" x1="553.177" y1="1918.32" x2="417.481" y2="2189.59" gradientUnits="userSpaceOnUse">
<stop stop-color="#A6F780"/>
<stop offset="1" stop-color="#218F8D"/>
</linearGradient>
</defs>
</svg>
