<svg width="1728" height="386" viewBox="0 0 1728 386" fill="none" xmlns="http://www.w3.org/2000/svg">
<path d="M1060.9 35.41C1434.06 -47.2865 1711.27 34.8796 1873.99 79.427C1879.04 80.8105 1881.35 86.5714 1878.75 91.1164L1837.02 163.865C1835.62 166.315 1833.02 167.843 1830.2 167.884L2.7704 194.394C-1.07895 194.45 -4.42218 191.756 -5.18643 187.983L-33.9184 46.1305C-34.9932 40.8245 -30.404 36.0264 -25.0217 36.6091C551.803 99.0593 721.704 110.579 1060.9 35.41Z" fill="#211452"/>
<path d="M784.879 349.911C408.48 433.199 129.686 349.045 -32.4993 304.833C-35.984 303.883 -38.3203 300.743 -38.3203 297.131V181.61C-38.3203 177.205 -34.7596 173.629 -30.355 173.61L1895.97 165.277C1901.74 165.252 1905.64 171.164 1903.35 176.46L1841.15 319.858C1839.76 323.072 1836.31 324.991 1832.82 324.615C1252.06 261.93 1125.15 274.619 784.879 349.911Z" fill="#211452"/>
</svg>
